<svg width="664" height="708" viewBox="0 0 664 708" fill="none" xmlns="http://www.w3.org/2000/svg">
<path d="M548.208 623.923C548.684 625.36 550.129 628.242 550.973 631.971C551.478 634.197 551.335 636.431 551.696 642.999C553.185 670.1 549.175 673.016 547.493 675.908C545.745 678.913 543.167 681.682 540.874 684.574C538.382 687.717 534.501 689.626 531.009 691.919C527.843 693.998 523.206 696.602 519.213 698.302C514.849 700.161 509.225 699.982 505.733 700.592L504.621 700.786C501.505 701.331 497.78 701.982 494.659 702.516C491.163 703.115 487.806 704.083 483.469 704.802C479.601 705.443 475.283 706.004 467.477 706.131C462.407 706.213 454.86 702.177 449.285 699.877C445.027 698.12 440.619 696.385 437.128 695.421C433.999 694.557 430.754 692.774 426.66 691.572C420.952 689.896 416.311 688.918 409.942 687.362C401.936 685.406 397.304 683.386 393.675 682.899C388.41 682.191 381.402 683.632 376.473 682.422C371.582 681.222 365.774 679.544 361.181 678.089C357.256 676.846 353.959 674.72 347.474 672.319C340.872 669.874 336.642 667.744 331.215 665.816C326.141 664.013 320.017 661.244 317.125 660.035C313.542 658.536 309.185 656.666 304.375 654.983C300.188 653.518 295.001 650.903 291.008 648.365C286.755 645.661 282.941 643.19 281.259 642.103C280.636 641.701 280.053 642.685 279.45 642.934C276.807 644.026 272.845 638.872 270.181 635.369C267.691 632.097 263.703 626.609 260.312 621.89C258.174 618.914 256.221 614.795 252.975 610.458C250.464 607.104 247.801 604.439 241.792 596.632C237.662 591.266 233.603 586.154 230.465 582.651C227.537 579.382 224.937 575.798 222.279 572.422C218.996 568.251 216.025 564.489 213.252 561.105C210.914 558.252 208.558 555.332 206.031 551.721C203.69 548.377 201.813 546.658 201.448 545.337C201.284 544.742 202.275 544.253 202.524 543.65C203.028 542.432 201.813 540.881 199.78 538.487C195.899 533.917 185.275 531.486 173.363 531.366C166.384 531.297 161.155 529.565 155.609 527.882C151.364 526.594 148.142 524.755 144.65 522.827C141.053 520.84 137.309 518.255 135.016 515.728C132.477 512.928 128.643 510.557 126.35 507.546C123.818 504.22 122.62 501.169 119.255 496.237C116.911 492.801 113.232 489.86 111.665 486.126C108.849 479.418 107.209 474.694 105.527 471.08C102.955 465.555 101.201 461.45 98.4277 459.038C95.4495 456.447 94.4558 451.831 89.0503 446.891C84.5405 442.77 86.9886 436.174 86.8622 428.602C86.8414 427.359 89.3862 424.143 91.0688 421.005C92.9378 417.52 95.5725 413.88 98.0717 410.428L98.1677 410.295C99.283 408.754 100.457 407.518 102.493 406.796C108.065 404.82 111.759 409.425 115.016 411.718C118.512 414.179 120.67 417.369 122.245 420.261C123.817 423.15 124.772 427.941 125.137 432.653C125.509 437.459 127.661 441.677 128.625 446.371C129.686 451.537 131.503 455.875 133.196 459.258C134.034 460.932 135.605 462.15 136.684 463.353C137.203 463.93 138.002 464.079 138.609 463.844C139.953 463.324 138.277 458.345 138.132 453.149C138.046 450.041 139.938 447.007 141.017 444.602C141.487 443.556 142.335 443.15 143.061 443.024C143.787 442.897 144.502 443.136 144.989 443.854C147.679 447.82 148.358 452.755 150.882 456.124C155.53 462.328 159.667 464.555 163.159 468.881C164.499 470.541 166.174 471.3 167.377 471.546C170.655 472.215 169.547 465.537 170.626 464.45C172.914 462.147 175.078 469.365 178.325 473.575C181.463 477.645 184.943 480.919 192.031 485.372C196.646 488.27 202.752 490.077 206.009 491.64C206.839 492.038 207.807 492.243 208.536 492.008C216.212 489.538 210.71 469.639 211.555 465.183C211.937 463.172 211.916 461.443 212.635 461.074C217.418 458.622 220.055 478.435 227.064 487.773C230.398 492.215 235.972 494.395 247.263 502.328C248.266 503.033 249.211 503.763 250.104 504.478M250.104 504.478C250.71 504.964 251.293 505.443 251.854 505.904M250.104 504.478C250.584 505.084 251.159 505.57 251.854 505.904M250.104 504.478C247.134 500.729 247.817 492.417 246.587 487.693C245.427 483.238 245.143 476.399 245.136 458.493C245.134 454.935 245.851 454.228 246.573 453.86C247.295 453.492 248.248 453.492 249.216 453.968C254.438 456.54 258.604 460.944 262.811 465.266C266.189 468.738 269.444 470.578 270.17 471.062C272.568 472.661 266.086 465.306 265.36 462.049C265.176 461.225 265.595 460.251 266.075 460.117C266.555 459.984 267.27 460.699 267.758 460.71C276.637 460.907 270.159 433.069 273.889 426.674C278.186 419.307 284.609 416.907 285.812 416.542C291.04 414.956 287.26 431.567 288.697 436.972C290.618 444.199 296.157 449.382 298.443 451.433C301.039 453.763 300.735 441.013 305.419 433.177C311.147 423.593 329.348 415.982 333.475 412.216C336.426 409.524 336.844 403.676 337.454 398.267C338.639 387.76 341.668 371.901 342.145 369.735C342.333 368.878 343.574 368.998 344.661 369.951C350.387 374.974 350.565 381.737 352.847 387.857C358.856 403.973 363.087 406.782 364.048 407.273C366.324 408.436 365.499 398.174 365.857 388.211C366.242 377.487 369.096 368.074 371.62 361.581C373.247 357.397 375.834 353.616 380.625 348.099C392.933 333.926 399.181 329.539 402.68 325.202C403.866 323.733 403.774 336.602 405.93 347.553C406.593 350.922 408.822 353.341 410.382 355.024C411.141 355.843 412.18 356.23 412.79 355.999C419.134 353.597 414.361 335.822 417.723 322.231C420.051 312.818 421.337 308.35 424.941 303.902C426.07 302.508 427.577 301.143 428.552 300.764C431.537 299.603 434.091 306.386 446.451 322.234C450.824 327.842 456.218 331.9 461.392 334.919C463.609 336.212 463.237 329.062 465.028 320.046C466.368 313.301 467.325 307.39 469.112 305.816C473.407 302.033 479.826 311.21 484.141 314.688C490.197 319.568 496.667 324.44 506.596 332.222C513.748 337.826 525.82 345.961 533.031 350.615C540.242 355.27 542.387 355.985 543.968 356.591C545.55 357.198 546.503 357.674 546.041 355.418C543.129 341.198 537.635 334.146 535.696 326.538C533.539 318.075 531.121 313.897 531.71 309.427C532.128 306.25 537.361 314.583 544.413 319.01C549.906 322.458 559.806 327.488 569.963 331.857C580.12 336.226 590.368 339.563 599.46 341.877C605.897 343.516 611.188 344.632 615.273 345.412M251.854 505.904C254.394 507.991 256.495 509.705 258.373 509.943C259.97 510.146 254.784 507.177 252.018 505.979C251.963 505.955 251.908 505.93 251.854 505.904ZM615.273 345.412C621.693 346.639 625.133 347.036 625.36 347.329C628.279 351.098 620.632 347.998 615.273 345.412ZM615.273 345.412C613.738 344.672 612.391 343.974 611.534 343.491C606.512 340.664 600.638 335.895 596.199 332.291L595.762 331.936C590.717 327.842 583.132 324.96 579.994 320.27C579.264 319.179 578.553 318.461 578.9 318.331C583.729 316.52 590.541 322.288 595.253 322.899C600.264 323.547 610.242 326.376 620.634 329.149C624.056 330.062 626.433 331.2 628.473 331.922C629.523 332.294 630.751 332.168 628.982 328.712C616.106 309.795 612.726 306.177 611.646 304.736C611.043 304.01 610.328 303.295 609.592 302.559M521.838 378.738C522.186 379.955 522.539 381.018 525.803 387.112C528.847 392.797 534.894 403.644 538.377 409.809C541.86 415.975 542.643 417.106 548.786 427.429C554.93 437.753 566.41 457.234 572.759 468.358C579.108 479.481 579.978 481.655 580.643 483.036C581.597 485.016 582.365 485.998 582.629 488.137C583.603 496.038 582.191 498.385 581.666 500.84C581.438 501.903 582.191 502.605 582.104 503.131C581.912 504.295 581.053 505.238 577.943 507.824C576.548 508.985 575.086 510.156 573.324 511.039C572.056 511.674 570.864 512.269 569.371 512.665C568.02 513.022 566.911 513.677 565.638 514.245C563.245 515.312 561.64 515.959 559.799 516.485C556.5 517.427 554.877 518.505 552.376 519.384C550.64 519.994 548.815 519.912 546.227 520.045C542.415 520.241 537.482 519.918 536.163 519.476C533.972 518.743 531.426 518.6 529.531 518.202C528.104 517.902 521.806 517.893 517.89 518.112C516.489 518.19 515.29 518.839 514.246 519.403L514.199 519.429C513.697 519.7 512.708 520.26 511.567 521.181C510.863 521.75 510.769 523.241 510.899 525.128C511.03 525.884 511.291 526.232 511.555 526.498C511.82 526.765 512.081 526.939 512.877 527.645M521.047 530.28C520.091 531.066 517.626 532.821 513.86 535.803C511.07 538.012 509.546 538.271 506.655 539.237C505.543 539.609 503.948 539.763 501.446 539.898C498.943 540.032 495.551 540.032 493.195 539.858C489.593 539.592 486.714 538.195 482.993 536.183C478.289 533.639 475.284 530.642 473.795 528.148C469.953 521.716 470.008 517.556 469.875 515.922C469.713 513.94 470.176 512.016 471.362 506.499C472.141 502.875 473.252 500.069 474.172 497.924C475.263 495.379 476.76 492.258 478.689 489.406C480.911 486.122 484.044 483.221 486.208 480.476C486.606 480.034 486.954 479.599 489.482 477.897C492.009 476.194 496.706 473.237 501.808 470.191M569.805 512.886V529.383C569.805 538.053 569.805 551.359 569.891 558.432C569.984 565.943 570.419 566.822 570.55 568.264C571.027 573.475 569.631 576.655 568.843 578.634C567.71 581.479 565.683 583.07 564.319 584.435C562.645 586.11 559.283 588.51 557.116 590.365C555.472 591.772 552.605 594.651 550.57 596.648C549.072 598.12 543.66 600.628 540.251 602.271C538.167 603.276 536.866 603.632 534.718 604.423C532.163 605.363 530.108 606.178 525.462 607.451C521.903 608.426 519.471 609.607 518.42 610.089C515.106 611.609 510.51 611.982 507.75 612.506C505.479 612.937 504.101 613.21 502.126 613.473C499.946 613.764 496.906 614.354 493.922 614.397C491.979 614.425 489.787 614.617 487.199 614.661C485.389 614.691 484.329 614.968 480.758 615.1C479.68 615.139 478.282 615.157 476.792 615.167M476.792 615.167C473.827 615.187 470.499 615.173 468.615 615.231C465.783 615.318 466.392 615.492 466.966 615.625C468.056 615.878 470.253 615.935 473.67 615.631C474.849 615.526 475.877 615.366 476.792 615.167ZM476.792 615.167C480.863 614.284 482.698 612.63 485.655 611.598C488.526 610.596 493.364 608.508 496.786 607.26C500.208 606.012 502.035 605.577 504.585 604.701C510.416 602.697 514.277 601.002 515.59 600.521C517.152 599.95 520.32 598.288 524.401 596.489C528.29 594.775 530.525 593.454 532.897 592.045C536.171 590.101 536.771 588.009 538.04 586.16C539.716 583.718 543.001 583.349 547.209 582.423C550.606 581.675 551.788 580.972 556.564 579.527C559.17 578.951 560.314 578.687 561.796 578.555C563.018 578.511 565.192 578.511 567.432 578.511M559.262 589.053C559.436 589.227 559.787 589.751 560.182 592.062C561.056 597.171 560.578 601.258 560.973 602.702C561.819 605.795 560.676 607.481 559.281 609.54L559.269 609.557C557.519 612.138 556.806 613.294 555.665 614.612C554.479 615.982 552.942 617.074 551.843 617.602C550.382 618.305 549.253 619.182 547.978 619.842C546.84 620.432 544.345 621.201 542.576 621.994C541.128 622.643 539.333 622.872 536.913 623.532C535.061 624.037 532.923 624.189 531.156 624.631C528.734 625.236 526.587 625.423 524.877 625.904C522.695 626.517 520.884 626.561 519.296 626.828C518.231 627.006 517.186 627.355 516.31 627.53C515.434 627.705 511.072 627.795 504.924 627.751C501.54 627.727 500.495 627.357 497.909 626.83C496.375 626.518 494.613 626.04 493.335 625.906C492.047 625.772 491.008 625.512 489.952 625.379C488.562 625.204 486.532 624.021 485.121 623.317C483.625 622.787 481.878 622.092 480.202 621.471C479.849 621.383 479.501 621.296 479.67 620.942M548.604 625.681C548.278 625.138 547.947 624.532 547.673 623.93C547.508 623.437 547.343 622.996 547.125 622.586C547.014 622.392 546.906 622.23 546.465 621.733M363.801 499.557L363.8 499.55C363.701 498.756 363.5 497.139 362.709 485.851C362.159 478.006 362.409 463.89 362.506 456.332C362.603 448.773 362.899 448.181 363.051 443.982C363.203 439.783 363.203 431.994 363.499 427.587C363.852 422.328 365.095 421.086 365.244 419.353C365.754 413.437 366.089 410.835 367.476 407.013C371.067 397.111 372.665 396.187 372.713 395.542C372.781 394.624 375.139 393.603 379.105 391.816C381.549 390.715 385.043 389.635 388.25 388.828C391.458 388.022 394.317 387.627 397.466 387.424C400.615 387.221 403.967 387.221 408.307 386.827C412.646 386.432 417.872 385.643 421.007 385.089C425.056 384.374 426.339 383.934 428.612 383.54C430.504 383.212 433.844 382.357 437.986 380.965C442.129 379.572 446.96 377.601 450.04 376.437C454.255 374.844 456.41 374.574 458.543 374.228C461.401 373.763 466.344 372.587 471.768 371.592L472.155 371.521C476.526 370.719 479.441 370.184 483.724 369.943C491.559 369.503 497.048 369.991 497.792 370.338C499.885 371.313 501.52 372.575 503.023 374.516C503.485 375.112 502.925 376.654 503.273 382.24C503.553 386.737 503.522 394.63 503.326 399.778C502.946 409.788 501.735 411.708 501.036 413.209C500.401 414.574 500.636 417.48 499.644 423.449C499.23 425.94 498.748 427.746 497.999 430.78C497.587 432.451 495.862 433.918 495.309 435.318C494.866 436.439 494.762 438.101 494.513 439.896C494.103 442.847 492.976 448.139 491.827 452.489C491.051 455.428 487.108 459.994 485.701 463C485.285 463.888 484.804 464.598 483.715 465.885C481.532 468.463 478.052 472.053 474.419 474.791C472.066 476.565 468.495 478.034 463.853 479.833C462.15 480.493 458.737 482.02 453.42 483.76C448.685 485.31 445.768 485.712 444.33 486.11C443.4 486.367 442.006 486.507 436.168 487.693C430.33 488.879 420.077 491.048 414.548 492.166C409.019 493.283 408.526 493.283 406.498 493.628C400.905 494.579 396.868 495.374 395.778 495.522C391.381 496.119 386.226 496.468 384.172 496.817C382.728 497.065 381.234 497.564 377.874 497.714C375.008 497.765 369.782 497.764 364.398 497.764M503.56 381.449C503.939 382.017 506.881 382.215 511.469 381.977C517.24 381.677 521.353 378.007 521.783 377.387C521.93 376.673 522.119 375.714 522.453 374.664C522.598 374.181 522.693 373.803 523.365 372.838M558.094 442.011C558.855 442.2 560.764 442.585 566.249 441.871C569.976 441.387 572.724 440.481 574.679 440.195C579.801 439.447 582.962 437.803 588.306 435.943C590.856 435.056 595.752 432.843 599.799 430.203C601.496 429.095 602.577 427.665 603.916 425.329C605.42 422.705 606.214 418.403 606.931 414.436C607.219 412.845 607.175 412.08 607.98 407.617C608.786 403.153 610.396 395.008 611.462 390.291C612.528 385.573 613.002 384.531 614.335 381.248C615.668 377.964 617.847 372.471 619.016 369.451C620.591 365.387 622.089 363.286 623.484 360.934C625.018 358.348 626.308 353.998 626.93 352.703C627.638 351.228 627.554 349.406 627.27 348.305C626.744 346.27 623.065 348.631 621.485 348.823C619.635 349.048 616.481 349.968 613.549 350.353C608.828 350.972 604.144 352.356 601.204 352.841C598.248 353.329 593.53 354.463 589.109 355.374C583.668 356.496 580.029 357.144 577.428 357.481C573.514 357.989 569.013 359.44 566.385 359.825C560.289 360.717 558.204 361.162 553.287 362.07C546.294 363.363 544.042 364.13 542.314 364.275C540.545 364.423 538.68 365.467 537.195 365.996C535.843 366.476 534.375 367 532.127 368.098C530.357 368.963 528.537 369.486 527.149 370.205C525.951 370.731 524.805 371.305 523.656 371.689C523.367 371.785 523.083 371.879 522.217 372.264M503.756 376.692C504.722 377.037 505.958 377.107 507.31 376.883C508.442 376.696 509.763 376.383 510.85 376.072C512.109 375.712 512.774 375.725 513.275 375.535C513.848 375.317 515.289 374.967 517.435 374.533C518.691 374.279 519.789 374.1 520.463 373.91C521.203 373.703 521.691 373.513 522.381 373.202C522.555 373.132 522.692 373.098 522.746 373.029C522.799 372.96 522.765 372.858 522.73 372.752M361.194 452.656C360.196 452.855 357.188 453.259 354.867 453.51C353.178 453.692 350.649 452.665 348.237 451.108C346.881 450.233 346.612 449.34 346.461 448.638C346.908 446.13 348.018 443.508 348.169 442.357C348.22 441.604 348.22 440.509 348.22 439.38M363.608 434.553C359.921 435.05 352.451 436.26 350.693 436.462C347.797 436.796 346.217 437.365 342.402 436.823C339.924 436.471 340.979 430.654 341.178 427.034C341.247 425.789 341.776 425.803 342.18 425.902C343.819 426.306 345.596 426.804 348.208 427.26C351.981 427.918 354.442 426.811 356.361 426.658C356.765 426.608 357.163 426.509 358.265 426.458C359.366 426.406 361.158 426.406 363.005 426.406M340.376 436.665C338.982 436.067 337.168 435.461 333.966 434.709C325.349 432.688 323.292 432.543 321.073 432.341C318.571 432.113 315.448 431.035 313.028 430.431C312.521 430.329 312.123 430.329 311.719 430.279C311.314 430.229 310.916 430.129 310.506 429.725M318.652 423.087C322.665 424.192 326.28 424.795 328.5 424.947C331.038 425.122 335.609 425.501 338.909 425.751C339.561 425.803 340.557 425.803 341.418 425.952C342.28 426.101 342.977 426.4 343.996 427.01M369.357 419.067L369.358 419.066C372.544 414.645 375.729 410.225 377.565 407.655C379.802 404.523 380.385 403.513 380.874 402.664L380.879 402.655C381.477 401.618 382.292 400.618 383.337 399.31C384.95 397.291 387.667 395.434 389.963 393.729C392.145 392.109 393.319 391.161 396.763 389.716C398.451 389.008 399.301 388.923 400.09 388.726C400.879 388.463 401.665 388.071 402.454 387.774C402.652 387.74 402.848 387.74 403.443 387.543M371.918 416.112C372.961 416.372 375.587 417.03 377.395 417.489C379.691 418.072 380.781 418.145 381.57 418.312C382.945 418.602 384.723 418.87 386.156 419.163C387.403 419.417 389.67 420.041 394.256 420.342C398.842 420.644 405.669 420.644 409.446 420.611C413.744 420.574 414.539 420.382 415.161 420.251C417.818 419.69 421.884 418.35 423.24 417.658C424.824 416.848 426.226 415.852 427.245 415.228C428.966 414.175 430.427 413.425 431.908 412.601C432.924 412.036 434.628 410.997 438.205 408.862C439.586 408.038 440.282 407.12 441.267 406.1C442.16 405.176 442.911 404.491 443.273 403.702C443.82 402.513 444.751 401.142 445.014 400.157C445.431 398.594 446.459 397.003 446.427 396.609C446.34 395.519 444.822 395.491 444 394.967C442.649 394.106 441.866 392.603 440.881 391.75C439.848 390.855 438.714 390.042 437.565 389.516C436.441 389.001 435.431 388.268 433.889 387.611C432.843 387.166 432.015 386.889 431.193 386.559C430.067 386.107 428.863 385.64 428.041 385.345C427.55 385.116 427.087 384.917 426.694 384.786L426.1 384.588M379.208 406.852C379.338 407.244 379.992 408.16 380.749 409.016C381.382 409.733 382.16 410.264 383.112 410.79C384.094 411.332 385.115 411.907 385.937 412.334C386.808 412.786 388.587 412.826 390.008 412.992C390.981 413.106 392.011 413.484 398.948 413.486C401.694 413.486 402.847 412.96 403.734 412.535C405.048 411.906 406.193 411.32 407.837 410.336C408.343 410.033 408.825 409.614 409.187 408.861C409.742 407.703 409.743 406.269 410.14 405.279C410.503 404.373 410.862 403.179 411.289 402.16C411.692 401.197 412.241 400.157 412.472 397.869C412.506 394.353 412.375 391.62 412.178 390.28C412.111 389.395 412.111 388.095 411.914 386.361M517.562 371.99C518.027 371.527 518.607 370.366 519.191 368.91C520.102 366.636 522.101 364.017 522.627 363.027C523.216 361.917 523.673 360.471 524.257 359.444C524.807 358.475 526.234 357.788 527.747 356.418C528.614 355.634 529.784 355.339 531.038 354.988C532.538 354.57 533.805 354.406 534.65 354.289C534.855 354.231 535.028 354.116 535.233 354.028C535.437 353.939 535.668 353.882 536.08 353.822M524.026 381.598C524.721 381.831 528.191 381.948 530.948 381.803C533.161 381.686 534.906 381.717 536.887 381.367C538.175 381.139 540.432 380.611 542.934 380.175C545.147 379.789 548.752 378.58 550.576 377.612C551.674 377.029 552.903 376.127 554.272 375.053C555.638 373.982 556.107 372.577 556.663 371.761C557.312 370.808 557.91 369.838 558.642 368.706C559.933 366.712 560.243 364.37 560.71 362.998C560.827 362.733 560.942 362.56 561.03 362.385C561.119 362.209 561.176 362.036 561.41 361.509M531.209 356.051C532.345 356.184 534.743 357.78 536.399 358.997C537.173 359.567 539.234 361.064 541.422 363.114C541.795 363.686 541.93 364.156 542.063 364.658C542.131 364.894 542.197 365.093 542.466 365.7M541.863 365.901C542.265 368.767 541.867 372.659 541.03 374.368C539.318 378.561 538.916 379.568 538.682 379.969C538.581 380.171 538.514 380.37 538.446 380.575M547.919 354.427C548.846 355.449 552.006 357.495 553.839 358.391C555.283 359.096 556.775 359.65 557.991 360.256C559.324 360.92 561.623 361.699 563.308 362.031C564.702 362.305 567.12 362.634 570.998 363.521C571.969 363.744 572.639 363.756 574.631 363.896C579.105 364.211 583.267 364.129 587.026 364.408C589.579 364.599 593.463 364.504 594.954 364.504C596.114 364.504 591.963 363.11 590.422 362.313C588.921 361.538 586.561 360.966 583.012 359.379C579.183 357.667 575.365 354.534 573.304 352.801C570.406 350.366 568.917 350.044 567.703 349.392C567.335 349.194 566.868 349.02 570.879 348.925C574.89 348.83 583.387 348.83 588.642 348.599C598.181 348.18 600.343 346.966 602.119 346.824C603.553 346.71 605.381 346.311 606.692 346.032L607.532 345.752C607.813 345.658 608.09 345.566 608.656 345.191M248.908 458.412C245.199 455.528 242.464 451.569 241.113 445.041C239.156 435.594 240.579 427.835 242.027 420.595C243.103 415.218 244.712 406.35 246.695 399.004C248.677 391.658 250.944 386.094 253.863 380.24C256.782 374.387 260.285 368.411 263.738 363.272C267.191 358.133 270.488 354.012 274.865 349.829C279.242 345.645 284.599 341.524 290.119 337.278M233.298 471.525C232.886 471.113 230.201 467.604 225.012 458.693C217.683 446.108 215.203 435.74 212.712 431.494C208.987 425.147 208.122 415.997 206.77 405.01C205.955 398.38 206.037 389.491 206.137 383.175C206.236 376.859 206.649 373.356 207.891 367.328C209.134 361.299 211.194 352.851 213.317 343.522M190.214 463.408C183.209 454.753 178.569 447.823 175.875 439.337C173.987 433.39 171.944 423.845 170.777 414.43C169.609 405.014 169.609 395.947 170.227 389.525C170.845 383.103 172.082 379.6 174.161 375.323C176.24 371.046 179.125 366.101 183.702 359.535C188.279 352.97 194.46 344.933 200.829 336.654M180.815 531.679C181.848 533.098 186.24 542.903 188.282 548.881C189.439 552.266 190.293 556.216 190.751 561.144C191.149 565.426 192.113 568.952 193.148 572.44C194.998 578.676 195.753 583.761 196.463 586.928C196.947 589.089 198.072 592.28 199.695 595.994C203.182 603.973 206.272 609.479 207.051 611.879C207.931 614.59 208.61 618.563 209.392 623.374C210.182 628.241 210.691 630.527 210.759 636.554C210.802 640.337 209.008 643.388 207.971 645.598C206.606 648.507 204.729 650.66 200.588 655.512C193.949 663.292 190.555 669.76 191.075 671.381C191.866 673.846 189.522 676.257 188.355 677.818C187.309 679.215 187.051 682.477 186.858 685.791C186.809 686.633 185.882 679.577 185.946 669.255C185.977 664.267 186.891 662.794 189.028 659.35L189.111 659.216C191.025 656.13 193.107 649.631 194.495 645.549C196.42 639.883 196.404 637.301 196.211 636.067C196.134 635.573 195.633 635.477 194.984 635.475C193.429 635.47 190.835 636.377 183.415 638.187C177.799 639.557 168.176 640.984 162.341 641.85L162.086 641.888C156.279 642.749 154.736 642.749 154.391 642.62C153.757 642.384 158.446 640.812 164.208 637.515C167.541 635.607 171.127 632.289 174.013 629.477C179.118 624.503 182.359 619.003 184.761 614.718C185.643 613.146 185.749 612.748 185.751 612.357C185.753 611.965 185.625 611.579 184.722 611.638C182.091 611.808 179.14 612.998 175.841 613.387C171.158 613.941 165.387 613.006 160.262 612.033C154.384 610.918 152.37 608.458 151.785 607.487C151.078 606.313 152.101 604.564 153.331 602.302C155.248 598.773 157.031 591.614 158.785 584.147C159.419 581.447 159.381 580.924 159.188 580.595C158.815 579.958 156.283 580.776 150.402 582.459C146.503 583.576 140.534 584.4 136.265 584.93C131.995 585.46 129.552 585.46 128.679 585.267C126.629 584.814 133.893 577.841 138.176 569.928C143.09 560.849 143.266 555.592 144.176 553.776C144.549 553.033 144.314 552.475 142.898 552.467C141.481 552.459 138.78 552.973 133.724 553.303C128.667 553.632 121.337 553.761 116.724 553.955C110.43 554.221 105.76 555.701 101.021 557.453C98.6296 558.337 97.938 559.345 97.4197 560.187C97.2463 560.469 97.1179 560.752 97.0268 561.017M97.0268 561.017C96.8149 561.633 96.8042 562.152 96.8955 562.336C97.0232 562.594 97.0385 562.06 97.0268 561.017ZM97.0268 561.017C97.0069 559.239 96.9084 555.983 97.1527 552.632C97.4497 548.56 99.2241 544.435 101.619 539.382C104.657 534.072 106.894 530.646 107.866 529.479C108.324 528.955 108.71 528.569 109.497 527.392M107.548 527.392C102.236 528.168 98.4639 529.337 97.0356 530.179C94.647 531.586 95.732 536.987 94.5629 539.144C94.1389 539.926 92.6718 538.868 91.5162 538.035L91.449 537.987C90.7404 537.476 90.0266 536.504 87.6356 531.153C85.2447 525.802 81.2579 516.028 79.0755 510.414C76.4676 503.706 75.985 501.293 74.9503 497.031C72.9999 488.998 72.345 483.358 71.893 482.966C70.3024 481.588 68.8415 485.942 65.8621 490.542C64.908 492.016 64.0479 493.713 63.3913 494.51C62.7346 495.307 62.3488 495.178 61.9571 494.79C61.0396 493.882 58.853 488.081 55.2228 476.624C53.2103 470.272 52.107 462.465 51.3782 456.947C50.6494 451.428 50.6494 448.342 50.4565 446.687C50.2636 445.033 49.8778 444.905 48.6502 444.967C44.4632 445.18 41.4578 446.037 39.5063 446.873M39.5063 446.873C38.1831 447.44 37.3445 447.998 36.9508 448.338C36.5244 448.706 36.6196 449.308 36.8768 449.509C37.134 449.71 37.6484 449.581 38.1064 449.386C38.5643 449.191 38.9501 448.934 39.2775 448.352C39.4454 448.053 39.5209 447.569 39.5063 446.873ZM39.5063 446.873C39.4532 444.335 38.2006 438.982 35.8635 429.542C33.9798 421.933 32.1144 411.085 31.0544 405.005C29.9944 398.926 29.9944 397.897 29.6086 397.56C28.7362 396.797 26.4986 399.292 23.5874 402.784C19.0481 408.229 17.0461 410.85 16.1051 412.239M16.1051 412.239C15.5605 413.043 15.3713 413.434 15.2513 413.719C15.0069 414.301 16.8687 413.984 17.4552 413.856C17.7398 413.793 17.0934 413.271 16.1051 412.239ZM16.1051 412.239C15.4069 411.51 14.5379 410.526 13.7061 409.269C10.5091 404.438 10.7696 399.187 10.5747 395.054C10.4346 392.081 10.5085 387.32 10.2513 383.518C9.33542 372.947 11.5334 368.278 13.7412 364.967C14.5343 363.715 14.6629 363.329 14.7954 362.931M16.5214 361.014C13.1168 362.915 10.6334 364.211 9.04162 365.325C6.9058 366.819 6.20445 370.279 5.59648 372.521C5.33323 373.492 3.77259 372.862 3.02461 371.748C-0.233906 366.896 1.5397 360.399 1.17124 336.914C0.842601 315.967 1.04596 276.674 1.28915 255.325C1.55778 231.742 3.00619 227.889 3.86471 224.696C4.70009 221.59 8.1352 206.564 13.6585 185.45C17.2672 171.656 22.1368 160.419 30.3351 143.828C34.8821 134.626 41.2085 124.702 46.8939 115.676C57.4981 98.8425 63.6774 89.6276 65.5123 86.5935C69.3068 80.3194 74.7092 77.1552 80.612 71.2311C85.753 66.0715 93.8398 60.8519 104.4 53.4828C119.504 42.9425 131.961 38.4132 134.411 36.6562C139.015 33.3547 146.663 31.0681 153.682 31.2025C167.207 31.4615 171.998 24.0014 181.799 20.0168C187.319 17.7727 194.814 16.013 201.461 14.5679C212.799 12.103 216.45 11.8267 223.69 12.1628C231.059 12.5048 234.873 9.92562 239.298 9.1239C247.309 7.67263 253.517 5.45133 259.446 3.20458C261.115 2.57182 262.891 2.56128 271.66 2.08121C279.451 1.6547 294.048 1.91798 302.051 1.75956C310.054 1.60113 311.027 1.28428 317 1.12106C333.913 0.658859 347.38 1.59153 351.79 2.7101C360.856 5.00939 371.175 7.98612 379.55 9.91122C388.023 11.8588 393.784 13.747 399.09 14.8752C407.239 16.6079 411.5 18.2405 419.337 20.3096C433.906 24.1559 445.885 32.3163 452.51 36.1473C458.653 39.6999 465.516 43.5116 470.085 46.3921C478.087 51.4366 487.639 57.2801 494.15 60.9527C497.747 62.9821 505.045 66.8624 510.863 69.9205C515.194 72.1968 520.565 75.523 523.638 77.7601C527.483 80.5595 530.882 84.4716 534.441 86.4015C541.657 90.314 544.146 96.3198 549.788 103.982C554.395 110.24 558.885 113.276 565.016 119.671C570.328 125.211 575.584 130.559 580.131 134.563C584.608 138.506 588.598 142.407 597.795 154.202C607.592 166.767 610.927 177.875 615.632 186.723C617.99 191.157 620.536 196.79 626.299 205.911C630.941 213.258 638.215 219.507 643.241 227.495C649.961 238.176 655.052 242.47 658.852 245.674L658.985 245.786C660.557 247.112 662.062 248.35 662.803 249.31C664.569 251.6 654.007 251.864 649.553 252.675C643.708 253.74 635.061 253.794 633.097 254.749C632.259 255.157 632.106 256.338 633.44 258.254C641.237 269.451 647.316 274.255 652.957 285.114C656.094 291.151 657.397 296.031 657.77 298.109C658.719 303.412 646.373 298.93 641.944 298.445C636.154 297.812 631.87 294.13 626.351 292.051C624.015 291.249 622.283 290.606 620.326 290.126C619.099 289.963 617.397 289.963 615.643 289.963M615.457 290.676C616.589 291.558 621.127 295.586 624.821 299.785C626.568 301.771 628.5 302.202 629.134 302.581C629.38 302.727 629.017 303.209 628.574 303.466C625.353 304.228 621.044 304.988 617.123 305.748C615.605 305.877 613.473 305.877 611.277 305.877M546.871 539.812C549.618 541.578 552.798 543.665 556.062 545.938C560.64 549.128 563.101 552.475 565.394 555.36C566.189 556.752 567.571 558.331 568.616 559.674C568.864 559.924 569.158 560.12 569.462 560.322M178.768 504.448C178.658 504.227 177.775 502.736 176.219 500.318C175.049 498.5 173.433 497.385 171.244 496.137C168.137 494.365 165.307 493.541 163.918 493.18C162.876 492.908 162.019 492.927 160.663 493.064C158.13 493.322 155.404 494.257 153.485 494.954C152.745 495.222 152.393 495.044 152.058 494.794C151.722 494.545 151.391 494.159 149.981 491.894C148.571 489.629 146.092 485.496 144.594 483.064C142.704 479.996 141.816 479.237 140.79 478.986C139.31 478.625 138.03 479.011 137.364 479.288C136.653 479.584 136.082 480.509 135.637 481.62C135.295 482.473 135.355 483.514 135.521 485.397C135.804 488.628 136.523 491.03 136.966 492.001C137.63 493.137 138.247 494.037 138.664 494.565C138.86 494.817 139.026 495.037 139.196 495.264M114.985 462.872C113.663 460.007 112.761 457.429 112.427 454.739C112.231 453.16 112.313 451.114 112.396 449.595C112.53 447.131 113.09 445.348 113.865 443.49C115.082 441.246 116.757 439.005 118.809 436.979C119.926 435.944 121.193 434.897 122.499 433.819M169.584 487.917C167.193 486.75 166.195 486.084 165.08 485.028C164.42 484.402 163.801 482.973 163.05 481.279C162.486 480.005 162.294 478.686 162.128 476.195C162.071 474.421 162.071 471.611 162.098 470.081C162.126 468.55 162.181 468.385 162.238 468.215M476.145 428.525C473.587 425.839 472.015 421.916 471.646 419.14C471.585 418.68 471.743 418.287 471.907 417.989C472.468 416.965 473.515 416.772 475.405 414.069C477.037 411.736 479.766 407.27 481.336 405.057C482.907 402.844 483.167 402.974 484.309 404.569C485.45 406.164 487.466 409.22 488.894 411.087C490.9 413.708 492.232 414.142 492.659 414.239C493.306 414.387 491.647 415.45 488.048 421.731C486.151 425.043 485.277 427.922 484.622 429.76C484.372 430.462 483.967 430.558 483.669 430.625C482.194 430.562 480.223 430.298 475.9 429.48C474.902 429.313 474.446 429.313 474.175 429.116M488.754 408.034C490.575 406.083 493.073 402.738 495.535 399.126C496.631 397.726 497.548 397.332 499.314 396.58C500.365 396.088 501.73 395.373 503.334 394.636M529.145 393.848C529.535 393.848 531.946 394.888 535.783 396.855C537.41 397.781 538.385 398.561 539.05 399.125C539.715 399.69 540.04 400.015 540.375 400.35M538.602 394.242C540.292 398.403 541.983 402.565 542.919 405.098C543.855 407.632 543.985 408.412 544.119 409.413M444.189 386.668C445.664 387.652 447.139 388.635 448.206 389.818C449.273 391.001 449.888 392.353 450.389 393.664C450.89 394.975 451.259 396.204 451.639 398.216" stroke="white" stroke-width="2" stroke-linecap="round"/>
</svg>
