<svg width="373" height="209" viewBox="0 0 373 209" fill="none" xmlns="http://www.w3.org/2000/svg">
<path d="M369.845 12.2577L370.845 12.2446L369.845 12.2577ZM370.369 85.9377L369.377 86.06L370.369 85.9377ZM368.811 159.618L369.808 159.543L368.811 159.618ZM370.013 195.648L371.013 195.64L370.013 195.648ZM250.351 205.523L250.333 206.522L250.351 205.523ZM213.511 205.35L213.355 206.337L213.511 205.35ZM139.831 207.203L139.859 208.203L139.831 207.203ZM66.1508 206.101L66.0766 207.098L66.1508 206.101ZM29.3108 206.6L29.2821 207.599L29.3108 206.6ZM11.8077 205.782L11.8743 204.784L11.8077 205.782ZM11.3108 1.81881L11.4004 2.81478C17.4656 2.26892 23.5306 2.4058 29.5968 3.2257L29.7308 2.23471L29.8647 1.24372C23.651 0.403893 17.436 0.263501 11.2211 0.822835L11.3108 1.81881ZM29.7308 2.23471L29.5968 3.2257C35.7791 4.06128 41.9621 4.49554 48.1455 4.52832L48.1508 3.52834L48.1561 2.52835C42.0595 2.49603 35.9625 2.06788 29.8647 1.24372L29.7308 2.23471ZM48.1508 3.52834L48.1455 4.52832C54.3321 4.56112 60.5182 4.16317 66.7035 3.33469L66.5708 2.34354L66.438 1.35239C60.3434 2.16873 54.2495 2.56065 48.1561 2.52835L48.1508 3.52834ZM66.5708 2.34354L66.7035 3.33469C72.8003 2.51807 78.8964 2.10585 84.9921 2.09785L84.9908 1.09786L84.9895 0.0978568C78.8051 0.105965 72.6212 0.524203 66.438 1.35239L66.5708 2.34354ZM84.9908 1.09786L84.9921 2.09785C91.0953 2.08985 97.1987 2.41824 103.302 3.08309L103.411 2.08897L103.519 1.09485C97.3429 0.422114 91.1663 0.0897582 84.9895 0.0978568L84.9908 1.09786ZM103.411 2.08897L103.302 3.08309C109.456 3.75338 115.61 4.29427 121.764 4.70577L121.831 3.708L121.897 2.71023C115.771 2.30059 109.645 1.76213 103.519 1.09485L103.411 2.08897ZM121.831 3.708L121.764 4.70577C127.965 5.1204 134.166 4.96963 140.365 4.25364L140.251 3.26024L140.136 2.26684C134.056 2.96899 127.977 3.11673 121.897 2.71023L121.831 3.708ZM140.251 3.26024L140.365 4.25364C146.446 3.55145 152.525 3.40105 158.605 3.80227L158.671 2.80444L158.737 1.80661C152.536 1.39741 146.336 1.55088 140.136 2.26684L140.251 3.26024ZM158.671 2.80444L158.605 3.80227C164.807 4.21158 171.009 4.04129 177.211 3.29159L177.091 2.29882L176.971 1.30605C170.892 2.04092 164.814 2.2077 158.737 1.80661L158.671 2.80444ZM177.091 2.29882L177.211 3.29159C183.312 2.55395 189.414 2.17412 195.514 2.15201L195.511 1.15201L195.507 0.152021C189.328 0.174419 183.149 0.559133 176.971 1.30605L177.091 2.29882ZM195.511 1.15201L195.514 2.15201C201.657 2.12974 207.8 2.08213 213.943 2.00917L213.931 1.00925L213.919 0.00931573C207.782 0.0822062 201.644 0.129775 195.507 0.152021L195.511 1.15201ZM213.931 1.00925L213.943 2.00917C220.035 1.93681 226.128 2.29561 232.222 3.08575L232.351 2.09405L232.479 1.10236C226.293 0.300239 220.106 -0.0641699 213.919 0.00931573L213.931 1.00925ZM232.351 2.09405L232.222 3.08575C238.427 3.89033 244.634 4.07755 250.84 3.64715L250.771 2.64954L250.702 1.65194C244.628 2.07314 238.554 1.89003 232.479 1.10236L232.351 2.09405ZM250.771 2.64954L250.84 3.64715C256.931 3.22477 263.021 3.2556 269.112 3.73966L269.191 2.7428L269.27 1.74594C263.081 1.25405 256.891 1.2227 250.702 1.65194L250.771 2.64954ZM269.191 2.7428L269.112 3.73966C275.293 4.23094 281.475 4.33427 287.657 4.04962L287.611 3.05067L287.565 2.05173C281.467 2.33254 275.368 2.23062 269.27 1.74594L269.191 2.7428ZM287.611 3.05067L287.657 4.04962C293.767 3.76826 299.877 3.76082 305.987 4.0273L306.031 3.02825L306.074 2.0292C299.905 1.76012 293.735 1.76763 287.565 2.05173L287.611 3.05067ZM306.031 3.02825L305.987 4.0273C312.155 4.29627 318.322 4.31052 324.49 4.07002L324.451 3.07078L324.412 2.07154C318.299 2.30989 312.187 2.29577 306.074 2.0292L306.031 3.02825ZM324.451 3.07078L324.49 4.07002C330.639 3.83026 336.787 3.50877 342.936 3.10554L342.871 2.10768L342.805 1.10983C336.674 1.5119 330.543 1.83247 324.412 2.07154L324.451 3.07078ZM342.871 2.10768L342.936 3.10554C349.028 2.70608 354.987 2.76186 360.815 3.2719L360.902 2.27571L360.99 1.27952C355.056 0.760225 348.994 0.703983 342.805 1.10983L342.871 2.10768ZM360.902 2.27571L360.815 3.2719C363.586 3.5144 365.532 4.40433 366.804 5.82448C368.082 7.25042 368.807 9.35188 368.845 12.2709L369.845 12.2577L370.845 12.2446C370.803 9.02353 369.997 6.39132 368.294 4.48994C366.585 2.58275 364.1 1.55169 360.99 1.27952L360.902 2.27571ZM369.845 12.2577L368.845 12.2709C368.926 18.4353 369.234 24.5997 369.767 30.764L370.763 30.6777L371.76 30.5915C371.23 24.4757 370.925 18.3601 370.845 12.2446L369.845 12.2577ZM370.763 30.6777L369.767 30.764C370.291 36.8193 370.048 42.875 369.035 48.9329L370.021 49.0977L371.008 49.2626C372.048 43.0405 372.299 36.8161 371.76 30.5915L370.763 30.6777ZM370.021 49.0977L369.035 48.9329C367.998 55.1399 367.605 61.3488 367.859 67.5585L368.858 67.5177L369.857 67.4769C369.61 61.4066 369.993 55.3355 371.008 49.2626L370.021 49.0977ZM368.858 67.5177L367.859 67.5585C368.111 73.7259 368.617 79.8931 369.377 86.06L370.369 85.9377L371.362 85.8154C370.608 79.7023 370.107 73.5895 369.857 67.4769L368.858 67.5177ZM370.369 85.9377L369.377 86.06C370.123 92.1214 370.147 98.1818 369.447 104.243L370.441 104.358L371.434 104.472C372.152 98.2536 372.128 92.034 371.362 85.8154L370.369 85.9377ZM370.441 104.358L369.447 104.243C368.734 110.417 368.345 116.592 368.28 122.767L369.28 122.778L370.279 122.788C370.344 116.683 370.729 110.578 371.434 104.472L370.441 104.358ZM369.28 122.778L368.28 122.767C368.215 128.891 368.005 135.016 367.652 141.14L368.65 141.198L369.648 141.255C370.004 135.1 370.214 128.944 370.279 122.788L369.28 122.778ZM368.65 141.198L367.652 141.14C367.294 147.324 367.349 153.509 367.814 159.693L368.811 159.618L369.808 159.543C369.35 153.447 369.296 147.351 369.648 141.255L368.65 141.198ZM368.811 159.618L367.814 159.693C368.275 165.816 368.578 171.939 368.725 178.062L369.725 178.038L370.725 178.014C370.577 171.857 370.272 165.7 369.808 159.543L368.811 159.618ZM369.725 178.038L368.725 178.062C368.873 184.197 368.969 190.062 369.013 195.657L370.013 195.648L371.013 195.64C370.968 190.034 370.872 184.159 370.725 178.014L369.725 178.038ZM370.013 195.648L369.013 195.657C369.034 198.28 368.334 200.044 367.093 201.16C365.833 202.292 363.831 202.925 360.891 202.867L360.871 203.867L360.851 204.867C364.051 204.93 366.642 204.254 368.43 202.647C370.237 201.023 371.037 198.617 371.013 195.64L370.013 195.648ZM360.871 203.867L360.891 202.867C354.722 202.745 348.554 202.884 342.386 203.284L342.451 204.282L342.516 205.28C348.627 204.884 354.739 204.746 360.851 204.867L360.871 203.867ZM342.451 204.282L342.386 203.284C336.27 203.681 330.154 203.858 324.038 203.816L324.031 204.816L324.024 205.816C330.188 205.859 336.352 205.68 342.516 205.28L342.451 204.282ZM324.031 204.816L324.038 203.816C317.911 203.774 311.785 203.608 305.658 203.317L305.611 204.316L305.563 205.315C311.717 205.607 317.87 205.774 324.024 205.816L324.031 204.816ZM305.611 204.316L305.658 203.317C299.453 203.023 293.249 203.329 287.046 204.235L287.191 205.224L287.335 206.214C293.412 205.326 299.488 205.027 305.563 205.315L305.611 204.316ZM287.191 205.224L287.046 204.235C280.969 205.122 274.894 205.421 268.818 205.13L268.771 206.129L268.723 207.128C274.928 207.424 281.132 207.119 287.335 206.214L287.191 205.224ZM268.771 206.129L268.818 205.13C262.669 204.837 256.519 204.634 250.369 204.523L250.351 205.523L250.333 206.522C256.463 206.633 262.593 206.835 268.723 207.128L268.771 206.129ZM250.351 205.523L250.369 204.523C244.197 204.411 238.024 204.598 231.852 205.083L231.931 206.08L232.009 207.077C238.117 206.597 244.225 206.412 250.333 206.522L250.351 205.523ZM231.931 206.08L231.852 205.083C225.791 205.56 219.73 205.32 213.667 204.362L213.511 205.35L213.355 206.337C219.571 207.32 225.79 207.567 232.009 207.077L231.931 206.08ZM213.511 205.35L213.667 204.362C207.435 203.377 201.202 203.267 194.969 204.032L195.091 205.024L195.213 206.017C201.26 205.275 207.306 205.382 213.355 206.337L213.511 205.35ZM195.091 205.024L194.969 204.032C188.852 204.783 182.736 205.314 176.62 205.626L176.671 206.624L176.722 207.623C182.886 207.309 189.049 206.773 195.213 206.017L195.091 205.024ZM176.671 206.624L176.62 205.626C170.5 205.938 164.379 206.068 158.259 206.017L158.251 207.016L158.242 208.016C164.402 208.068 170.562 207.937 176.722 207.623L176.671 206.624ZM158.251 207.016L158.259 206.017C152.107 205.965 145.954 206.027 139.802 206.204L139.831 207.203L139.859 208.203C145.987 208.027 152.115 207.965 158.242 208.016L158.251 207.016ZM139.831 207.203L139.802 206.204C133.676 206.38 127.551 206.423 121.425 206.333L121.411 207.333L121.396 208.333C127.551 208.423 133.705 208.38 139.859 208.203L139.831 207.203ZM121.411 207.333L121.425 206.333C115.292 206.243 109.159 206.092 103.025 205.881L102.991 206.881L102.956 207.88C109.103 208.092 115.25 208.243 121.396 208.333L121.411 207.333ZM102.991 206.881L103.025 205.881C96.8697 205.669 90.7142 205.6 84.5587 205.674L84.5708 206.674L84.5828 207.674C90.7073 207.6 96.8318 207.669 102.956 207.88L102.991 206.881ZM84.5708 206.674L84.5587 205.674C78.4475 205.748 72.3363 205.558 66.2249 205.103L66.1508 206.101L66.0766 207.098C72.2452 207.556 78.414 207.749 84.5828 207.674L84.5708 206.674ZM66.1508 206.101L66.2249 205.103C60.0341 204.643 53.8432 204.656 47.6524 205.143L47.7308 206.14L47.8091 207.137C53.8984 206.658 59.9874 206.645 66.0766 207.098L66.1508 206.101ZM47.7308 206.14L47.6524 205.143C41.5479 205.623 35.4436 205.775 29.3394 205.6L29.3108 206.6L29.2821 207.599C35.4579 207.776 41.6336 207.622 47.8091 207.137L47.7308 206.14ZM29.3108 206.6L29.3394 205.6C23.2108 205.424 17.3891 205.152 11.8743 204.784L11.8077 205.782L11.741 206.779C17.2837 207.15 23.1308 207.423 29.2821 207.599L29.3108 206.6ZM11.8077 205.782L11.8743 204.784C9.29723 204.612 7.46379 203.781 6.23088 202.398C4.98487 201.001 4.2318 198.906 4.10015 195.973L3.10115 196.018L2.10216 196.063C2.24614 199.27 3.08198 201.872 4.73815 203.729C6.40742 205.601 8.78943 206.582 11.741 206.779L11.8077 205.782ZM3.10115 196.018L4.10015 195.973C3.82542 189.853 3.7364 183.733 3.83308 177.613L2.8332 177.598L1.83333 177.582C1.73601 183.742 1.82562 189.902 2.10216 196.063L3.10115 196.018ZM2.8332 177.598L3.83308 177.613C3.93016 171.468 3.97875 165.323 3.97886 159.178L2.97886 159.178L1.97886 159.178C1.97875 165.312 1.93024 171.447 1.83333 177.582L2.8332 177.598ZM2.97886 159.178L3.97886 159.178C3.97896 152.995 3.58712 146.813 2.80349 140.632L1.81143 140.758L0.819367 140.883C1.59251 146.982 1.97896 153.08 1.97886 159.178L2.97886 159.178ZM1.81143 140.758L2.80349 140.632C2.03267 134.552 1.81652 128.472 2.1548 122.393L1.15635 122.338L0.157891 122.282C-0.187166 128.483 0.0334055 134.684 0.819367 140.883L1.81143 140.758ZM1.15635 122.338L2.1548 122.393C2.49752 116.234 2.66519 110.075 2.65781 103.917L1.65781 103.918L0.657813 103.919C0.665148 110.04 0.49851 116.161 0.157891 122.282L1.15635 122.338ZM1.65781 103.918L2.65781 103.917C2.65048 97.7973 2.83427 91.6781 3.2092 85.5589L2.21107 85.4977L1.21294 85.4366C0.835474 91.5973 0.650429 97.7581 0.657813 103.919L1.65781 103.918ZM2.21107 85.4977L3.2092 85.5589C3.58764 79.3822 3.62542 73.2055 3.32255 67.0287L2.32375 67.0777L1.32495 67.1267C1.62422 73.23 1.58689 79.3332 1.21294 85.4366L2.21107 85.4977ZM2.32375 67.0777L3.32255 67.0287C3.02174 60.8942 2.77104 54.7596 2.57043 48.625L1.57097 48.6577L0.571503 48.6904C0.772462 54.8358 1.02361 60.9813 1.32495 67.1267L2.32375 67.0777ZM1.57097 48.6577L2.57043 48.625C2.3709 42.5233 2.52143 36.4215 3.02205 30.3195L2.02539 30.2377L1.02874 30.1559C0.521896 36.3339 0.369469 42.5121 0.571503 48.6904L1.57097 48.6577ZM2.02539 30.2377L3.02205 30.3195C3.52874 24.1434 3.6977 17.9736 3.52887 11.8103L2.52924 11.8377L1.52962 11.8651C1.69645 17.9552 1.52951 24.052 1.02874 30.1559L2.02539 30.2377ZM2.52924 11.8377L3.52887 11.8103C3.44493 8.74627 3.37453 6.44486 3.31766 4.90822C3.28926 4.14096 3.26404 3.55878 3.24195 3.16593C3.23102 2.9716 3.22025 2.81247 3.20932 2.69702C3.20423 2.64331 3.19712 2.57687 3.18641 2.51446C3.18221 2.49003 3.1706 2.42365 3.14572 2.3472C3.13559 2.31606 3.10408 2.22123 3.03683 2.11501C3.01387 2.07876 2.75261 1.64771 2.18913 1.64771V2.64771V3.64771C1.62749 3.64771 1.3681 3.21815 1.34704 3.18488C1.28168 3.08166 1.25209 2.99131 1.24391 2.96616C1.22292 2.90168 1.21531 2.85324 1.21522 2.85275C1.21273 2.8382 1.21425 2.84356 1.21823 2.88558C1.22543 2.96159 1.2345 3.08964 1.2451 3.27823C1.26608 3.65122 1.29073 4.21778 1.31902 4.98219C1.37553 6.50888 1.44572 8.80247 1.52962 11.8651L2.52924 11.8377ZM2.18913 2.64771V1.64771C2.19755 1.64771 2.22085 1.64777 2.25068 1.64962C2.26647 1.65073 2.30634 1.65466 2.33032 1.6578C2.37085 1.66446 2.49122 1.69463 2.56924 1.72305C2.76225 1.82876 3.16354 2.42652 3.14566 2.93649C3.01195 3.21471 2.71034 3.50053 2.61478 3.55211C2.56913 3.57225 2.49589 3.59912 2.46905 3.60737C2.45184 3.61224 2.4225 3.61977 2.41049 3.62258C2.37134 3.63149 2.3398 3.63598 2.33838 3.6362C2.32925 3.63756 2.32236 3.63846 2.31975 3.63879C2.31152 3.63984 2.30863 3.64007 2.31896 3.63899C2.33494 3.63731 2.36396 3.63442 2.40836 3.63013C2.49588 3.62169 2.63224 3.60888 2.81837 3.59163C3.19015 3.55718 3.75584 3.50544 4.51586 3.43638C6.03568 3.29827 8.33047 3.09108 11.4004 2.81478L11.3108 1.81881L11.2211 0.822835C8.15107 1.09914 5.85558 1.30639 4.33486 1.44458C3.57461 1.51367 3.00746 1.56554 2.63383 1.60017C2.44725 1.61745 2.30777 1.63055 2.21629 1.63938C2.1712 1.64373 2.13494 1.64731 2.10985 1.64995C2.09965 1.65102 2.08228 1.65287 2.06563 1.655C2.06091 1.65561 2.05229 1.65673 2.04182 1.6583C2.03904 1.65872 2.00653 1.66338 1.96679 1.67242C1.95463 1.67527 1.92517 1.68283 1.90785 1.68773C1.88091 1.69601 1.8076 1.72291 1.76189 1.74308C1.66628 1.79468 1.36464 2.08052 1.23092 2.35876C1.21304 2.86875 1.61435 3.46654 1.8074 3.57226C1.88546 3.60069 2.00589 3.63088 2.04651 3.63756C2.07057 3.64071 2.11056 3.64464 2.12648 3.64576C2.15659 3.64764 2.18025 3.64771 2.18913 3.64771V2.64771Z" fill="white"/>
</svg>
