<svg width="828" height="614" viewBox="0 0 828 614" fill="none" xmlns="http://www.w3.org/2000/svg">
<path d="M119.879 66.7847C120.395 67.3036 121.435 68.0899 122.995 69.0059C126.164 70.8668 131.326 66.8004 135.369 64.9565C141.655 62.0895 146.7 63.6395 151.012 61.5519C152.694 60.7378 154.277 59.7159 155.579 58.1473C157.754 55.5267 157.929 50.823 157.158 46.7461C156.862 45.1783 153.776 45.5549 151.563 45.1657C145.742 44.1419 150.625 30.6312 150.77 23.0435C150.853 18.6756 144.909 18.5617 143.478 17.7794C142.742 17.377 142.305 16.4781 142.555 15.9473C144.39 12.0555 152.439 15.9277 155.708 17.5042C157.283 18.2637 158.445 20.6454 161.17 22.2179C164.683 24.2452 168.352 22.4931 169.912 21.8405C173.785 20.2203 176.946 16.7297 180.207 15.4205C184.434 13.7233 188.409 12.7982 198.297 12.2714C203.018 12.0199 205.104 9.91257 206.535 9.13022C208.069 8.2913 208.24 5.21058 208.756 2.32884C208.965 1.16252 210.304 1.00395 211.223 1.00002C212.935 0.992692 215.52 3.33922 218.257 7.51833C223.433 15.4227 216.591 21.6833 214.89 25.3592C212.744 29.9979 220.204 36.607 222.831 41.6038C226.126 47.8703 221.799 51.8295 221.662 56.9364C221.608 58.9434 222.831 60.4865 224.258 61.6659C227.796 64.5902 232.465 61.548 236.375 60.628C240.458 59.6672 244.194 58.6702 251.998 55.2656C256.732 53.2004 260.349 52.1126 265.823 51.0629C270.254 50.2132 273.909 51.3105 277.689 52.6276C281.296 53.8841 286.67 51.5936 290.463 49.4942C294.145 47.4557 297.883 46.6085 302.708 47.2533C307.509 47.895 310.919 51.5779 314.042 51.8452C319.522 52.3141 325.502 45.838 329.431 42.9445C333.055 40.2758 334.635 35.6163 337.384 32.0701C340.256 28.364 341.689 25.9056 342.987 24.5965C343.653 23.9247 344.801 23.8062 345.72 23.8023C349.231 23.7873 351.588 28.2409 354.325 30.9968C357.748 34.4433 359.142 38.9816 361.496 45.5274C363.78 51.8817 364.1 56.2799 366.707 61.6541C368.359 65.0572 369.573 68.8604 372.959 72.2769C373.746 73.0704 374.265 73.8455 374.273 74.7655C374.307 78.7531 367.79 80.9221 362.954 82.7659C357.704 84.7676 353.965 88.7849 351.346 92.0637C349.963 93.7942 349.774 96.6478 350.419 99.0067C350.691 100.001 352.354 99.8087 353.406 99.5492C357.275 98.5947 359.408 94.3204 362.532 91.9537C366.365 89.0492 370.605 89.068 375.035 88.1481C384.489 86.1848 391.968 89.5869 396.547 90.3693C397.489 90.5303 398.24 90.8922 398.38 91.5448C399.158 95.15 393.063 97.953 390.444 101.369C389.867 102.122 389.404 102.938 389.525 103.599C389.646 104.259 390.42 104.778 391.464 104.916C393.782 105.221 395.902 104.267 397.591 103.225C402.417 100.248 402.681 95.8851 402.947 94.4462C403.076 93.7513 401.665 93.2668 401.52 92.8697C401.375 92.4726 402.15 92.2131 403.193 92.2092C407.75 92.1921 411.267 95.3426 416.741 100.052C421.802 104.407 428.736 106.618 433.166 106.626C436.906 106.632 440.2 104.007 446.58 104.519C453.562 105.078 454.549 109.504 455.98 110.416C461.539 113.959 458.458 124.962 460.276 126.271C464.038 128.98 470.414 128.115 476.174 127.333C479.779 126.843 484.756 123.932 497.775 123.786C505.361 123.702 509.012 129.672 512.28 132.821C513.69 134.179 514.759 135.97 516.448 137.279C520.753 140.616 529.593 136.78 533.522 135.195C535.049 134.58 537.17 134.405 539.641 134.535C544.174 134.773 551.206 141.183 556.977 146.184C561.038 149.703 565.813 155.855 571.83 158.776C577.966 161.755 586.426 160.085 590.601 161.265C595.956 162.777 598.953 170.024 600.646 173.708C602.049 176.762 602.862 179.994 602.999 202.851C603.051 211.564 600.517 216.682 601.431 221.53C602.917 229.399 598.452 234.767 595.578 240.401C593.258 244.949 591.415 249.958 586.727 254.821C582.405 259.305 578.903 260.463 574.473 263.344C570.737 265.775 568.988 269.363 566.517 273.822C563.473 279.313 561.434 285.081 559.483 289.536C557.364 294.374 548.407 293.219 546.053 296.498C541.035 303.489 543.965 317.594 543.05 323.727C540.28 342.299 540.838 347.206 539.016 351.405C537.097 355.825 536.662 361.092 535.755 365.035C533.164 376.296 533.542 392.048 531.853 391.784C529.912 391.482 528.068 392.826 526.895 394.131C524.408 396.899 525.714 405.611 524.807 411.426C524.019 416.478 521.289 420.33 518.298 427.14C516.044 432.271 512.703 437.11 509.047 439.347C504.575 442.083 499.926 443.148 494.847 445.11C490.482 446.796 487.414 449.958 484.153 451.275C478.827 453.426 471.259 454.156 458.775 454.553C452.939 454.739 447.8 455.996 444.145 456.779C439.686 457.733 432.974 459.393 426.945 461.099C420.675 462.874 417.82 467.256 415.208 471.702C412.383 476.513 408.437 476.959 405.176 478.008C403.256 478.626 399.843 478.799 396.195 479.188C394.822 479.334 394.611 480.355 394.479 481.405C393.918 485.833 395.128 493.156 394.479 498.963C393.837 504.703 395.128 508.913 394.22 513.379C393.344 517.693 390.186 520.456 388.098 524.258C386.289 527.552 385.744 532.754 379.907 543.758C376.373 550.419 371.684 552.945 369.46 557.412C367.591 561.163 367.493 564.488 366.594 568.553C365.788 572.196 360.471 572.87 356.436 577.592C353.076 581.523 355.256 588.344 353.696 590.046C351.043 592.941 346.662 595.153 344.179 598.173C341.295 601.68 329.506 599.1 324.239 600.272C320.573 601.088 321.889 607.466 319.16 610.494C318.49 611.237 317.213 610.895 316.682 611.414C316.15 611.933 316.15 612.971 316.021 612.986C313.047 613.349 313.038 606.46 309.128 602.65C305.955 599.559 301.324 594.414 297.524 590.986C295.916 589.535 295.303 587.314 293.876 584.967C286.188 572.322 260.115 577.879 259.333 574.234C256.304 560.118 259.865 555.603 258.285 552.332C257.761 551.247 259.567 549.596 260.744 548.664C264.578 545.629 268.435 545.381 276.497 541.065C283.913 537.093 292.894 525.535 296.468 515.656C298.461 510.146 297.117 505.54 298.286 504.101C300.748 501.072 304.405 498.99 307.537 496.891C309.097 495.845 310.668 493.754 311.97 490.876C313.839 486.746 311.982 483.524 311.204 482.215C309.22 478.876 298.227 477.776 292.445 473.181C286.863 468.745 284.105 463.089 281.49 459.027C280.149 456.945 281.228 454.172 279.93 452.081C278.468 449.726 276.278 448.401 274.718 447.744C273.274 447.137 271.586 448.393 269.768 448.656C265.193 449.319 262.727 444.218 259.861 441.198C257.24 438.438 255.423 434.531 253.73 430.847C252.047 427.184 254.36 420.126 256.713 415.907C257.631 414.263 258.285 410.683 258.027 405.839C257.75 400.639 253.609 398.346 250.09 395.594C245.621 392.098 242.654 391.261 241.352 390.349C236.482 386.938 240.816 376.597 242.247 373.059C243.452 370.079 245.766 367.162 246.939 364.024C248.871 358.856 243.459 353.811 238.881 346.467C235.647 341.28 232.488 338.321 230.67 337.534C225.877 335.461 217.67 338.84 212.556 336.756C205.957 334.067 204.596 329.42 202.903 325.489C201.179 321.485 201.202 317.107 200.295 312.385C199.365 307.544 199.372 301.9 199.122 297.575C198.525 287.25 171.253 294.556 166.812 293.109C162.295 291.638 157.694 289.838 152.349 286.434C147.723 283.487 142.837 278.311 139.697 275.815C136.944 273.625 136.315 267.838 133.707 263.242C129.326 255.521 123.538 253.41 121.329 251.703C117.692 248.894 113.639 250.524 109.858 248.425C108.118 247.459 106.593 246.585 104.775 246.321C100.316 245.675 95.6691 249.187 91.6108 251.684C87.3755 254.289 81.8441 253.653 78.3175 255.485C74.0701 257.692 64.688 258.638 58.2486 257.074C57.2205 256.824 56.5556 256.028 56.2858 255.371C55.1407 252.585 54.7258 249.219 52.118 244.764C50.045 241.224 46.656 237.424 42.7423 234.535C37.8311 230.909 33.0969 233.996 29.9651 235.699C26.632 237.51 23.1895 239.5 20.4605 240.157C19.0548 240.495 17.4734 240.035 16.1597 239.123C10.9048 235.474 8.85621 233.21 5.20447 231.783C1.26161 230.242 1.28686 223.539 1.02099 210.738C0.687526 194.682 4.39905 188.958 7.00688 182.652C7.9568 180.355 8.05861 177.667 8.5747 175.178C8.97268 173.259 11.9606 173.201 13.2625 171.766C16.4184 168.287 15.3465 163.514 21.7155 157.361C26.01 153.212 33.05 154.849 39.8217 154.196C48.0582 153.402 54.9604 152.506 57.5643 149.628C60.8861 145.957 61.7478 141.765 62.7917 137.566C65.8132 125.413 62.5454 105.061 60.5944 103.229C59.0318 101.762 56.5556 100.603 54.0807 98.9044C52.1982 97.6126 52.6302 92.7635 52.8882 87.5269C53.1672 81.8657 58.6043 78.5947 61.7439 76.6211C66.0839 73.8929 67.2215 64.7246 66.3184 57.2431C66.1428 55.7887 66.4396 55.0061 67.2176 54.6051C71.2028 52.5511 83.5488 53.4178 91.5834 54.8528C95.4316 55.54 98.234 58.6545 100.056 59.8299C100.918 60.3864 101.362 61.2649 100.724 61.4065C100.087 61.548 98.2809 61.029 97.8664 60.632C93.4233 56.375 114.389 60.746 118.69 62.3225C119.613 62.8454 120.129 63.6238 120.395 64.6735C120.66 65.7232 120.66 67.0205 120.66 68.3572" stroke="white" stroke-width="2" stroke-linecap="round"/>
<path d="M394.885 478.841C393.816 478.841 392.257 478.647 390.697 478.109C388.489 477.346 388.253 475.316 386.844 471.501C385.473 467.787 381.54 464.834 379.137 462.76C377.743 461.556 373.071 461.48 370.307 460.943C369.078 460.704 368.257 460.011 367.818 459.279C366.486 457.055 369.22 452.769 370.008 450.402C370.49 448.957 370.595 446.39 369.965 444.467C369.465 442.943 366.422 441.287 359.647 438.536C355.393 436.808 351.889 437.056 347.393 437.544C345.626 437.736 344.263 437.939 342.752 438.427C341.021 438.986 338.615 438.821 334.468 438.089C332.553 437.75 330.228 436.767 328.216 435.882C326.933 435.317 326.02 434.996 325.628 434.85C324.412 434.399 329.409 432.948 333.368 429.907C335.707 428.11 337.128 426.174 338.4 424.654C339.808 422.972 340.447 420.783 341.328 418.722C342.268 416.522 343.081 414.509 343.719 412.345C343.864 411.852 344.058 411.367 344.303 411.116C344.715 410.694 345.425 410.672 346.009 410.184C346.328 409.917 346.593 409.501 346.549 409.155C346.505 408.809 346.118 408.518 345.968 408.174C345.296 406.64 347.763 404.987 349.757 403.663C353.656 401.074 356.823 401.744 361.298 401.988C364.101 402.141 369.319 402.038 372.875 401.844C378.193 401.554 381.505 400.182 383.991 399.152C386.264 398.21 388.926 398.213 390.684 397.92C392.91 397.549 396.242 397.819 397.805 398.749C399.744 399.902 401.124 403.104 401.419 405.904C401.478 406.455 401.709 406.741 402.002 406.988C402.294 407.235 402.681 407.429 405.922 407.529C409.163 407.629 415.247 407.629 418.816 407.727C423.261 407.847 424.535 408.412 425.265 408.804C425.922 409.155 426.391 409.686 426.78 410.322C428.264 412.745 427.175 417.623 426.396 419.98C425.473 422.775 423.57 424.885 422.592 426.748C421.007 429.769 421.322 431.947 420.98 434.056C420.672 435.948 423.347 439.869 425.655 442.152C427.402 443.881 434.725 443.824 439.404 444.312C443.146 444.703 445.5 443.047 447.31 441.573C448.122 440.912 449.117 440.687 450.041 440.393C451.201 440.023 453.302 440.875 455.351 442.389C457.196 443.753 455.854 446.272 455.416 447.006C454.597 448.382 453.709 449.021 453.27 449.509C453.314 450.883 453.706 452.154 453.658 453.33C453.609 453.826 453.513 454.117 453.121 454.712M394.033 479.19C394.43 479.411 395.046 479.59 395.993 479.701C398.609 480.006 400.734 478.796 401.96 478.303C403.119 477.837 405.38 477.106 406.223 476.859C407.128 476.593 407.813 475.904 408.805 475.306C410.108 474.521 411.604 473.644 412.738 472.819C414.168 471.779 415.362 470.845 416.316 470.021C417.603 468.908 418.238 468.487 419.802 466.805C421.506 464.973 422.434 464.58 424.243 463.116C424.978 462.52 425.352 462.002 425.838 461.579C426.371 461.115 426.985 460.582 427.56 460.224C428.289 459.771 429.325 459.204 433.047 457.697C434.999 456.906 436.524 457.381 437.914 457.226C438.557 457.154 439.601 456.896 441.235 456.804C442.869 456.713 445.056 456.757 446.445 456.736C449.133 456.695 451.049 456.006 452.54 455.051C452.741 454.849 452.872 454.761 453.049 454.694C453.226 454.626 453.445 454.582 453.935 454.271" stroke="#FFF262" stroke-width="2" stroke-linecap="round"/>
<path d="M513.232 565L516.4 548.68H520.24L517.072 565H513.232ZM520.048 561.88C520.928 561.88 521.712 561.712 522.4 561.376C523.088 561.04 523.68 560.576 524.176 559.984C524.672 559.376 525.048 558.68 525.304 557.896C525.56 557.112 525.688 556.272 525.688 555.376C525.688 554.224 525.376 553.344 524.752 552.736C524.128 552.112 523.232 551.8 522.064 551.8H518.608L519.208 548.68H522.4C523.936 548.68 525.24 548.944 526.312 549.472C527.4 550 528.232 550.76 528.808 551.752C529.384 552.744 529.672 553.936 529.672 555.328C529.672 556.624 529.44 557.856 528.976 559.024C528.512 560.176 527.848 561.2 526.984 562.096C526.12 562.992 525.072 563.704 523.84 564.232C522.624 564.744 521.248 565 519.712 565H516.04L516.664 561.88H520.048ZM528.375 565L530.871 552.088H534.543L532.047 565H528.375ZM531.135 550.792L531.735 547.72H535.407L534.807 550.792H531.135ZM538.067 555.76C538.067 556.064 538.187 556.312 538.427 556.504C538.667 556.68 538.987 556.816 539.387 556.912C539.787 557.008 540.227 557.104 540.707 557.2C541.187 557.28 541.659 557.392 542.123 557.536C542.603 557.68 543.043 557.88 543.443 558.136C543.843 558.392 544.163 558.736 544.403 559.168C544.643 559.6 544.763 560.152 544.763 560.824C544.763 561.592 544.523 562.328 544.043 563.032C543.579 563.736 542.883 564.304 541.955 564.736C541.043 565.168 539.915 565.384 538.571 565.384C537.435 565.384 536.451 565.208 535.619 564.856C534.803 564.504 534.163 563.984 533.699 563.296C533.251 562.592 533.011 561.744 532.979 560.752H536.651C536.651 561.104 536.723 561.424 536.867 561.712C537.027 561.984 537.267 562.2 537.587 562.36C537.907 562.52 538.307 562.6 538.787 562.6C539.299 562.6 539.715 562.544 540.035 562.432C540.355 562.304 540.595 562.128 540.755 561.904C540.931 561.68 541.019 561.432 541.019 561.16C541.019 560.84 540.899 560.592 540.659 560.416C540.419 560.24 540.099 560.104 539.699 560.008C539.315 559.896 538.891 559.8 538.427 559.72C537.963 559.624 537.491 559.504 537.011 559.36C536.547 559.216 536.115 559.016 535.715 558.76C535.331 558.504 535.019 558.16 534.779 557.728C534.555 557.296 534.443 556.736 534.443 556.048C534.443 555.296 534.659 554.584 535.091 553.912C535.539 553.24 536.179 552.704 537.011 552.304C537.859 551.888 538.883 551.68 540.083 551.68C541.683 551.68 542.955 552.08 543.899 552.88C544.843 553.664 545.363 554.824 545.459 556.36H541.859C541.843 555.72 541.675 555.248 541.355 554.944C541.035 554.64 540.539 554.488 539.867 554.488C539.483 554.488 539.155 554.544 538.883 554.656C538.627 554.768 538.427 554.92 538.283 555.112C538.139 555.288 538.067 555.504 538.067 555.76ZM546.826 570.304H543.154L546.706 552.088H550.378L546.826 570.304ZM553.714 551.68C554.594 551.68 555.354 551.896 555.994 552.328C556.65 552.744 557.146 553.336 557.482 554.104C557.834 554.856 558.01 555.744 558.01 556.768C558.01 557.904 557.842 558.992 557.506 560.032C557.17 561.056 556.69 561.976 556.066 562.792C555.442 563.592 554.706 564.224 553.858 564.688C553.026 565.152 552.098 565.384 551.074 565.384C549.858 565.384 548.93 564.968 548.29 564.136C547.65 563.288 547.33 562.112 547.33 560.608C547.33 559.36 547.498 558.2 547.834 557.128C548.186 556.04 548.658 555.088 549.25 554.272C549.858 553.456 550.546 552.824 551.314 552.376C552.082 551.912 552.882 551.68 553.714 551.68ZM552.37 554.656C551.826 554.656 551.346 554.832 550.93 555.184C550.514 555.52 550.154 555.968 549.85 556.528C549.562 557.072 549.338 557.664 549.178 558.304C549.034 558.928 548.962 559.52 548.962 560.08C548.962 560.832 549.122 561.408 549.442 561.808C549.762 562.208 550.226 562.408 550.834 562.408C551.298 562.408 551.738 562.256 552.154 561.952C552.57 561.648 552.93 561.24 553.234 560.728C553.538 560.2 553.77 559.616 553.93 558.976C554.106 558.336 554.194 557.672 554.194 556.984C554.194 556.232 554.034 555.656 553.714 555.256C553.41 554.856 552.962 554.656 552.37 554.656ZM562.708 565.384C561.044 565.384 559.724 564.912 558.748 563.968C557.788 563.008 557.308 561.688 557.308 560.008C557.308 558.92 557.484 557.88 557.836 556.888C558.204 555.88 558.716 554.992 559.372 554.224C560.044 553.44 560.844 552.824 561.772 552.376C562.716 551.912 563.772 551.68 564.94 551.68C566.604 551.68 567.916 552.16 568.876 553.12C569.852 554.064 570.34 555.376 570.34 557.056C570.34 558.144 570.156 559.192 569.788 560.2C569.436 561.192 568.924 562.08 568.252 562.864C567.58 563.648 566.78 564.264 565.852 564.712C564.924 565.16 563.876 565.384 562.708 565.384ZM563.092 562.408C563.604 562.408 564.068 562.256 564.484 561.952C564.916 561.632 565.284 561.216 565.588 560.704C565.892 560.192 566.124 559.624 566.284 559C566.46 558.36 566.548 557.72 566.548 557.08C566.548 556.28 566.38 555.68 566.044 555.28C565.708 554.864 565.212 554.656 564.556 554.656C564.028 554.656 563.548 554.816 563.116 555.136C562.7 555.44 562.34 555.856 562.036 556.384C561.748 556.896 561.516 557.464 561.34 558.088C561.18 558.712 561.1 559.352 561.1 560.008C561.1 560.776 561.268 561.368 561.604 561.784C561.94 562.2 562.436 562.408 563.092 562.408ZM569.186 565L571.682 552.088H575.354L572.858 565H569.186ZM574.274 557.584H573.05C573.402 556.24 573.858 555.136 574.418 554.272C574.994 553.392 575.658 552.744 576.41 552.328C577.178 551.896 578.01 551.68 578.906 551.68C579.658 551.68 580.314 551.824 580.874 552.112C581.434 552.4 581.866 552.824 582.17 553.384C582.49 553.944 582.65 554.64 582.65 555.472C582.65 555.696 582.634 555.936 582.602 556.192C582.586 556.432 582.554 556.68 582.506 556.936L580.922 565H577.25L578.786 557.128C578.818 556.968 578.842 556.824 578.858 556.696C578.874 556.552 578.882 556.416 578.882 556.288C578.882 555.744 578.746 555.336 578.474 555.064C578.218 554.792 577.81 554.656 577.25 554.656C576.898 554.656 576.554 554.728 576.218 554.872C575.898 555.016 575.602 555.224 575.33 555.496C575.074 555.752 574.858 556.064 574.682 556.432C574.506 556.784 574.37 557.168 574.274 557.584ZM581.732 565L584.228 552.088H587.9L585.404 565H581.732ZM584.636 550.792L586.964 547.72H590.948L587.852 550.792H584.636ZM589.553 565L587.513 552.088H591.377L592.337 560.632L592.433 563.368H591.881L592.985 560.632L597.281 552.088H601.169L594.089 565H589.553ZM610.06 557.176L607.708 558.52C607.756 558.232 607.796 557.968 607.828 557.728C607.86 557.472 607.876 557.232 607.876 557.008C607.876 556.224 607.7 555.632 607.348 555.232C607.012 554.816 606.516 554.608 605.86 554.608C605.332 554.608 604.852 554.76 604.42 555.064C603.988 555.352 603.612 555.752 603.292 556.264C602.988 556.776 602.756 557.352 602.596 557.992C602.436 558.616 602.356 559.256 602.356 559.912C602.356 560.76 602.532 561.4 602.884 561.832C603.236 562.248 603.764 562.456 604.468 562.456C605.076 562.456 605.62 562.328 606.1 562.072C606.58 561.8 606.956 561.36 607.228 560.752H611.068C610.668 561.776 610.108 562.632 609.388 563.32C608.684 564.008 607.884 564.528 606.988 564.88C606.092 565.216 605.156 565.384 604.18 565.384C602.452 565.384 601.084 564.92 600.076 563.992C599.084 563.048 598.588 561.728 598.588 560.032C598.588 558.928 598.764 557.88 599.116 556.888C599.484 555.88 600.004 554.984 600.676 554.2C601.364 553.416 602.172 552.8 603.1 552.352C604.044 551.904 605.076 551.68 606.196 551.68C607.892 551.68 609.204 552.16 610.132 553.12C611.06 554.064 611.524 555.336 611.524 556.936C611.524 557.192 611.508 557.464 611.476 557.752C611.46 558.04 611.428 558.328 611.38 558.616L611.26 559.288H600.124L600.508 557.176H610.06ZM610.466 565L613.826 547.72H617.498L614.138 565H610.466ZM620.41 570.304H616.738L620.29 552.088H623.962L620.41 570.304ZM627.298 551.68C628.178 551.68 628.938 551.896 629.578 552.328C630.234 552.744 630.73 553.336 631.066 554.104C631.418 554.856 631.594 555.744 631.594 556.768C631.594 557.904 631.426 558.992 631.09 560.032C630.754 561.056 630.274 561.976 629.65 562.792C629.026 563.592 628.29 564.224 627.442 564.688C626.61 565.152 625.682 565.384 624.658 565.384C623.442 565.384 622.514 564.968 621.874 564.136C621.234 563.288 620.914 562.112 620.914 560.608C620.914 559.36 621.082 558.2 621.418 557.128C621.77 556.04 622.242 555.088 622.834 554.272C623.442 553.456 624.13 552.824 624.898 552.376C625.666 551.912 626.466 551.68 627.298 551.68ZM625.954 554.656C625.41 554.656 624.93 554.832 624.514 555.184C624.098 555.52 623.738 555.968 623.434 556.528C623.146 557.072 622.922 557.664 622.762 558.304C622.618 558.928 622.546 559.52 622.546 560.08C622.546 560.832 622.706 561.408 623.026 561.808C623.346 562.208 623.81 562.408 624.418 562.408C624.882 562.408 625.322 562.256 625.738 561.952C626.154 561.648 626.514 561.24 626.818 560.728C627.122 560.2 627.354 559.616 627.514 558.976C627.69 558.336 627.778 557.672 627.778 556.984C627.778 556.232 627.618 555.656 627.298 555.256C626.994 554.856 626.546 554.656 625.954 554.656ZM635.499 556.36H631.827C632.243 554.824 633.035 553.664 634.203 552.88C635.371 552.08 636.795 551.68 638.475 551.68C639.611 551.68 640.547 551.864 641.283 552.232C642.035 552.584 642.595 553.072 642.963 553.696C643.331 554.32 643.515 555.024 643.515 555.808C643.515 556 643.499 556.192 643.467 556.384C643.451 556.56 643.427 556.752 643.395 556.96L642.459 561.784C642.347 562.408 642.267 562.92 642.219 563.32C642.171 563.72 642.147 564.064 642.147 564.352C642.147 564.48 642.147 564.592 642.147 564.688C642.163 564.784 642.179 564.888 642.195 565H638.403C638.403 564.936 638.395 564.88 638.379 564.832C638.379 564.768 638.379 564.704 638.379 564.64C638.379 564.336 638.411 563.976 638.475 563.56C638.539 563.144 638.611 562.704 638.691 562.24L639.747 556.816C639.779 556.704 639.795 556.592 639.795 556.48C639.811 556.352 639.819 556.24 639.819 556.144C639.819 555.648 639.667 555.28 639.363 555.04C639.059 554.784 638.595 554.656 637.971 554.656C637.331 554.656 636.803 554.816 636.387 555.136C635.987 555.44 635.691 555.848 635.499 556.36ZM640.155 557.104L639.747 559.24C638.659 559.24 637.755 559.296 637.035 559.408C636.315 559.52 635.747 559.688 635.331 559.912C634.915 560.12 634.619 560.368 634.443 560.656C634.267 560.928 634.179 561.232 634.179 561.568C634.179 562 634.307 562.32 634.563 562.528C634.835 562.736 635.203 562.84 635.667 562.84C636.227 562.84 636.747 562.712 637.227 562.456C637.723 562.184 638.139 561.816 638.475 561.352C638.827 560.872 639.059 560.336 639.171 559.744H640.635C640.299 561.072 639.787 562.16 639.099 563.008C638.411 563.84 637.643 564.448 636.795 564.832C635.963 565.2 635.131 565.384 634.299 565.384C633.179 565.384 632.243 565.096 631.491 564.52C630.755 563.928 630.387 563.072 630.387 561.952C630.387 561.072 630.675 560.272 631.251 559.552C631.827 558.832 632.667 558.28 633.771 557.896C634.459 557.656 635.099 557.48 635.691 557.368C636.299 557.256 636.947 557.184 637.635 557.152C638.339 557.12 639.179 557.104 640.155 557.104ZM642.769 565L645.265 552.088H648.937L646.441 565H642.769ZM647.737 558.328H646.417C646.753 556.84 647.217 555.608 647.809 554.632C648.401 553.64 649.073 552.904 649.825 552.424C650.593 551.928 651.385 551.68 652.201 551.68C652.937 551.68 653.409 551.816 653.617 552.088L652.993 555.184C652.801 555.136 652.585 555.104 652.345 555.088C652.121 555.056 651.865 555.04 651.577 555.04C651.001 555.04 650.489 555.112 650.041 555.256C649.609 555.4 649.233 555.608 648.913 555.88C648.609 556.152 648.361 556.496 648.169 556.912C647.977 557.312 647.833 557.784 647.737 558.328ZM655.928 556.36H652.256C652.672 554.824 653.464 553.664 654.632 552.88C655.8 552.08 657.224 551.68 658.904 551.68C660.04 551.68 660.976 551.864 661.712 552.232C662.464 552.584 663.024 553.072 663.392 553.696C663.76 554.32 663.944 555.024 663.944 555.808C663.944 556 663.928 556.192 663.896 556.384C663.88 556.56 663.856 556.752 663.824 556.96L662.888 561.784C662.776 562.408 662.696 562.92 662.648 563.32C662.6 563.72 662.576 564.064 662.576 564.352C662.576 564.48 662.576 564.592 662.576 564.688C662.592 564.784 662.608 564.888 662.624 565H658.832C658.832 564.936 658.824 564.88 658.808 564.832C658.808 564.768 658.808 564.704 658.808 564.64C658.808 564.336 658.84 563.976 658.904 563.56C658.968 563.144 659.04 562.704 659.12 562.24L660.176 556.816C660.208 556.704 660.224 556.592 660.224 556.48C660.24 556.352 660.248 556.24 660.248 556.144C660.248 555.648 660.096 555.28 659.792 555.04C659.488 554.784 659.024 554.656 658.4 554.656C657.76 554.656 657.232 554.816 656.816 555.136C656.416 555.44 656.12 555.848 655.928 556.36ZM660.584 557.104L660.176 559.24C659.088 559.24 658.184 559.296 657.464 559.408C656.744 559.52 656.176 559.688 655.76 559.912C655.344 560.12 655.048 560.368 654.872 560.656C654.696 560.928 654.608 561.232 654.608 561.568C654.608 562 654.736 562.32 654.992 562.528C655.264 562.736 655.632 562.84 656.096 562.84C656.656 562.84 657.176 562.712 657.656 562.456C658.152 562.184 658.568 561.816 658.904 561.352C659.256 560.872 659.488 560.336 659.6 559.744H661.064C660.728 561.072 660.216 562.16 659.528 563.008C658.84 563.84 658.072 564.448 657.224 564.832C656.392 565.2 655.56 565.384 654.728 565.384C653.608 565.384 652.672 565.096 651.92 564.52C651.184 563.928 650.816 563.072 650.816 561.952C650.816 561.072 651.104 560.272 651.68 559.552C652.256 558.832 653.096 558.28 654.2 557.896C654.888 557.656 655.528 557.48 656.12 557.368C656.728 557.256 657.376 557.184 658.064 557.152C658.768 557.12 659.608 557.104 660.584 557.104ZM666.258 565L669.426 548.68H673.266L670.098 565H666.258ZM674.586 558.28H670.386L670.818 555.976H674.514C675.106 555.976 675.61 555.872 676.026 555.664C676.458 555.44 676.786 555.128 677.01 554.728C677.234 554.312 677.346 553.84 677.346 553.312C677.346 552.832 677.186 552.448 676.866 552.16C676.562 551.872 676.082 551.728 675.426 551.728H671.658L672.234 548.68H676.002C677.698 548.68 679.018 549.064 679.962 549.832C680.922 550.584 681.402 551.672 681.402 553.096C681.402 554.12 681.122 555.024 680.562 555.808C680.018 556.592 679.234 557.2 678.21 557.632C677.186 558.064 675.978 558.28 674.586 558.28ZM675.762 565L675.69 560.728C675.69 560.232 675.626 559.856 675.498 559.6C675.386 559.344 675.194 559.176 674.922 559.096C674.666 559 674.306 558.952 673.842 558.952H670.866L671.322 556.552H674.826C675.914 556.552 676.794 556.664 677.466 556.888C678.138 557.096 678.634 557.456 678.954 557.968C679.29 558.464 679.482 559.144 679.53 560.008L679.794 565H675.762ZM691.924 557.176L689.572 558.52C689.62 558.232 689.66 557.968 689.692 557.728C689.724 557.472 689.74 557.232 689.74 557.008C689.74 556.224 689.564 555.632 689.212 555.232C688.876 554.816 688.38 554.608 687.724 554.608C687.196 554.608 686.716 554.76 686.284 555.064C685.852 555.352 685.476 555.752 685.156 556.264C684.852 556.776 684.62 557.352 684.46 557.992C684.3 558.616 684.22 559.256 684.22 559.912C684.22 560.76 684.396 561.4 684.748 561.832C685.1 562.248 685.628 562.456 686.332 562.456C686.94 562.456 687.484 562.328 687.964 562.072C688.444 561.8 688.82 561.36 689.092 560.752H692.932C692.532 561.776 691.972 562.632 691.252 563.32C690.548 564.008 689.748 564.528 688.852 564.88C687.956 565.216 687.02 565.384 686.044 565.384C684.316 565.384 682.948 564.92 681.94 563.992C680.948 563.048 680.452 561.728 680.452 560.032C680.452 558.928 680.628 557.88 680.98 556.888C681.348 555.88 681.868 554.984 682.54 554.2C683.228 553.416 684.036 552.8 684.964 552.352C685.908 551.904 686.94 551.68 688.06 551.68C689.756 551.68 691.068 552.16 691.996 553.12C692.924 554.064 693.388 555.336 693.388 556.936C693.388 557.192 693.372 557.464 693.34 557.752C693.324 558.04 693.292 558.328 693.244 558.616L693.124 559.288H681.988L682.372 557.176H691.924ZM692.33 565L694.826 552.088H698.498L696.002 565H692.33ZM697.418 557.584H696.194C696.546 556.24 696.986 555.136 697.514 554.272C698.058 553.392 698.69 552.744 699.41 552.328C700.13 551.896 700.922 551.68 701.786 551.68C702.458 551.68 703.05 551.824 703.562 552.112C704.09 552.4 704.498 552.824 704.786 553.384C705.09 553.928 705.242 554.608 705.242 555.424C705.242 555.648 705.226 555.888 705.194 556.144C705.178 556.4 705.146 556.664 705.098 556.936L703.514 565H699.866L701.402 557.128C701.434 556.952 701.458 556.792 701.474 556.648C701.49 556.488 701.498 556.336 701.498 556.192C701.498 555.696 701.378 555.32 701.138 555.064C700.914 554.792 700.578 554.656 700.13 554.656C699.794 554.656 699.482 554.728 699.194 554.872C698.906 555.016 698.642 555.224 698.402 555.496C698.162 555.752 697.962 556.064 697.802 556.432C697.642 556.784 697.514 557.168 697.418 557.584ZM704.954 557.584H703.034C703.386 556.224 703.85 555.112 704.426 554.248C705.018 553.368 705.714 552.72 706.514 552.304C707.314 551.888 708.186 551.68 709.13 551.68C710.202 551.68 711.074 552 711.746 552.64C712.434 553.28 712.778 554.224 712.778 555.472C712.778 555.68 712.762 555.912 712.73 556.168C712.714 556.408 712.682 556.664 712.634 556.936L711.05 565H707.378L708.938 557.128C708.97 556.952 708.994 556.792 709.01 556.648C709.026 556.488 709.034 556.336 709.034 556.192C709.034 555.696 708.914 555.32 708.674 555.064C708.45 554.792 708.114 554.656 707.666 554.656C707.33 554.656 707.018 554.728 706.73 554.872C706.442 555.016 706.178 555.224 705.938 555.496C705.698 555.752 705.498 556.064 705.338 556.432C705.178 556.784 705.05 557.168 704.954 557.584ZM717.789 565.384C716.125 565.384 714.805 564.912 713.829 563.968C712.869 563.008 712.389 561.688 712.389 560.008C712.389 558.92 712.565 557.88 712.917 556.888C713.285 555.88 713.797 554.992 714.453 554.224C715.125 553.44 715.925 552.824 716.853 552.376C717.797 551.912 718.853 551.68 720.021 551.68C721.685 551.68 722.997 552.16 723.957 553.12C724.933 554.064 725.421 555.376 725.421 557.056C725.421 558.144 725.237 559.192 724.869 560.2C724.517 561.192 724.005 562.08 723.333 562.864C722.661 563.648 721.861 564.264 720.933 564.712C720.005 565.16 718.957 565.384 717.789 565.384ZM718.173 562.408C718.685 562.408 719.149 562.256 719.565 561.952C719.997 561.632 720.365 561.216 720.669 560.704C720.973 560.192 721.205 559.624 721.365 559C721.541 558.36 721.629 557.72 721.629 557.08C721.629 556.28 721.461 555.68 721.125 555.28C720.789 554.864 720.293 554.656 719.637 554.656C719.109 554.656 718.629 554.816 718.197 555.136C717.781 555.44 717.421 555.856 717.117 556.384C716.829 556.896 716.597 557.464 716.421 558.088C716.261 558.712 716.181 559.352 716.181 560.008C716.181 560.776 716.349 561.368 716.685 561.784C717.021 562.2 717.517 562.408 718.173 562.408ZM725.563 560.728L727.819 549.088H731.491L729.331 560.32C729.299 560.48 729.267 560.632 729.235 560.776C729.219 560.904 729.211 561.024 729.211 561.136C729.211 561.552 729.331 561.848 729.571 562.024C729.827 562.2 730.235 562.288 730.795 562.288H731.563L731.035 565.048C730.795 565.128 730.475 565.2 730.075 565.264C729.691 565.344 729.251 565.384 728.755 565.384C727.603 565.384 726.747 565.152 726.187 564.688C725.643 564.224 725.371 563.48 725.371 562.456C725.371 562.2 725.387 561.928 725.419 561.64C725.467 561.352 725.515 561.048 725.563 560.728ZM725.131 554.872L725.683 552.088H733.579L733.027 554.872H725.131ZM736.953 565.384C735.289 565.384 733.969 564.912 732.993 563.968C732.033 563.008 731.553 561.688 731.553 560.008C731.553 558.92 731.729 557.88 732.081 556.888C732.449 555.88 732.961 554.992 733.617 554.224C734.289 553.44 735.089 552.824 736.017 552.376C736.961 551.912 738.017 551.68 739.185 551.68C740.849 551.68 742.161 552.16 743.121 553.12C744.097 554.064 744.585 555.376 744.585 557.056C744.585 558.144 744.401 559.192 744.033 560.2C743.681 561.192 743.169 562.08 742.497 562.864C741.825 563.648 741.025 564.264 740.097 564.712C739.169 565.16 738.121 565.384 736.953 565.384ZM737.337 562.408C737.849 562.408 738.313 562.256 738.729 561.952C739.161 561.632 739.529 561.216 739.833 560.704C740.137 560.192 740.369 559.624 740.529 559C740.705 558.36 740.793 557.72 740.793 557.08C740.793 556.28 740.625 555.68 740.289 555.28C739.953 554.864 739.457 554.656 738.801 554.656C738.273 554.656 737.793 554.816 737.361 555.136C736.945 555.44 736.585 555.856 736.281 556.384C735.993 556.896 735.761 557.464 735.585 558.088C735.425 558.712 735.345 559.352 735.345 560.008C735.345 560.776 735.513 561.368 735.849 561.784C736.185 562.2 736.681 562.408 737.337 562.408ZM745.026 565L753.618 548.68H757.338L748.746 565H745.026ZM756.794 565L759.962 548.68H763.802L760.634 565H756.794ZM767.066 565L770.234 548.68H774.074L770.906 565H767.066ZM760.922 558.208L761.522 555.088H769.73L769.13 558.208H760.922ZM771.937 565L774.433 552.088H778.105L775.609 565H771.937ZM774.841 550.792L777.169 547.72H781.153L778.057 550.792H774.841ZM780.07 565H776.398L779.758 547.72H783.43L780.07 565ZM785.926 551.68C786.806 551.68 787.566 551.896 788.206 552.328C788.862 552.744 789.358 553.336 789.694 554.104C790.046 554.856 790.222 555.744 790.222 556.768C790.222 557.904 790.054 558.992 789.718 560.032C789.382 561.056 788.902 561.976 788.278 562.792C787.654 563.592 786.918 564.224 786.07 564.688C785.238 565.152 784.31 565.384 783.286 565.384C782.07 565.384 781.142 564.968 780.502 564.136C779.862 563.288 779.542 562.112 779.542 560.608C779.542 559.36 779.71 558.2 780.046 557.128C780.398 556.04 780.87 555.088 781.462 554.272C782.07 553.456 782.758 552.824 783.526 552.376C784.294 551.912 785.094 551.68 785.926 551.68ZM784.582 554.656C784.038 554.656 783.558 554.832 783.142 555.184C782.726 555.52 782.366 555.968 782.062 556.528C781.774 557.072 781.55 557.664 781.39 558.304C781.246 558.928 781.174 559.52 781.174 560.08C781.174 560.832 781.334 561.408 781.654 561.808C781.974 562.208 782.438 562.408 783.046 562.408C783.51 562.408 783.95 562.256 784.366 561.952C784.782 561.648 785.142 561.24 785.446 560.728C785.75 560.2 785.982 559.616 786.142 558.976C786.318 558.336 786.406 557.672 786.406 556.984C786.406 556.232 786.246 555.656 785.926 555.256C785.622 554.856 785.174 554.656 784.582 554.656ZM788.991 565L791.487 552.088H795.159L792.663 565H788.991ZM793.959 558.328H792.639C792.975 556.84 793.439 555.608 794.031 554.632C794.623 553.64 795.295 552.904 796.047 552.424C796.815 551.928 797.607 551.68 798.423 551.68C799.159 551.68 799.631 551.816 799.839 552.088L799.215 555.184C799.023 555.136 798.807 555.104 798.567 555.088C798.343 555.056 798.087 555.04 797.799 555.04C797.223 555.04 796.711 555.112 796.263 555.256C795.831 555.4 795.455 555.608 795.135 555.88C794.831 556.152 794.583 556.496 794.391 556.912C794.199 557.312 794.055 557.784 793.959 558.328ZM797.108 565L799.604 552.088H803.276L800.78 565H797.108ZM799.868 550.792L800.468 547.72H804.14L803.54 550.792H799.868ZM809.681 565L813.041 547.72H816.713L813.353 565H809.681ZM806.345 565.384C805.465 565.384 804.697 565.176 804.041 564.76C803.401 564.344 802.905 563.752 802.553 562.984C802.217 562.216 802.049 561.32 802.049 560.296C802.049 559.16 802.217 558.08 802.553 557.056C802.889 556.016 803.361 555.096 803.969 554.296C804.593 553.48 805.329 552.84 806.177 552.376C807.025 551.912 807.961 551.68 808.985 551.68C810.201 551.68 811.129 552.104 811.769 552.952C812.409 553.784 812.729 554.96 812.729 556.48C812.729 557.712 812.553 558.872 812.201 559.96C811.865 561.032 811.393 561.976 810.785 562.792C810.177 563.608 809.489 564.248 808.721 564.712C807.969 565.16 807.177 565.384 806.345 565.384ZM807.689 562.408C808.217 562.408 808.689 562.24 809.105 561.904C809.537 561.552 809.897 561.104 810.185 560.56C810.489 560.016 810.713 559.432 810.857 558.808C811.001 558.168 811.073 557.56 811.073 556.984C811.073 556.232 810.913 555.656 810.593 555.256C810.289 554.856 809.833 554.656 809.225 554.656C808.745 554.656 808.297 554.816 807.881 555.136C807.481 555.44 807.129 555.848 806.825 556.36C806.521 556.872 806.281 557.456 806.105 558.112C805.945 558.752 805.865 559.408 805.865 560.08C805.865 560.832 806.017 561.408 806.321 561.808C806.625 562.208 807.081 562.408 807.689 562.408ZM820.09 565.384C818.426 565.384 817.106 564.912 816.13 563.968C815.17 563.008 814.69 561.688 814.69 560.008C814.69 558.92 814.866 557.88 815.218 556.888C815.586 555.88 816.098 554.992 816.754 554.224C817.426 553.44 818.226 552.824 819.154 552.376C820.098 551.912 821.154 551.68 822.322 551.68C823.986 551.68 825.298 552.16 826.258 553.12C827.234 554.064 827.722 555.376 827.722 557.056C827.722 558.144 827.538 559.192 827.17 560.2C826.818 561.192 826.306 562.08 825.634 562.864C824.962 563.648 824.162 564.264 823.234 564.712C822.306 565.16 821.258 565.384 820.09 565.384ZM820.474 562.408C820.986 562.408 821.45 562.256 821.866 561.952C822.298 561.632 822.666 561.216 822.97 560.704C823.274 560.192 823.506 559.624 823.666 559C823.842 558.36 823.93 557.72 823.93 557.08C823.93 556.28 823.762 555.68 823.426 555.28C823.09 554.864 822.594 554.656 821.938 554.656C821.41 554.656 820.93 554.816 820.498 555.136C820.082 555.44 819.722 555.856 819.418 556.384C819.13 556.896 818.898 557.464 818.722 558.088C818.562 558.712 818.482 559.352 818.482 560.008C818.482 560.776 818.65 561.368 818.986 561.784C819.322 562.2 819.818 562.408 820.474 562.408ZM489.67 607L492.838 590.68H496.678L493.51 607H489.67ZM497.182 601.672H493.51L494.11 598.624H497.494C498.214 598.624 498.814 598.488 499.294 598.216C499.774 597.944 500.134 597.584 500.374 597.136C500.63 596.672 500.758 596.152 500.758 595.576C500.758 595 500.574 594.552 500.206 594.232C499.838 593.896 499.286 593.728 498.55 593.728H495.07L495.646 590.68H499.126C500.854 590.68 502.222 591.088 503.23 591.904C504.254 592.72 504.766 593.88 504.766 595.384C504.766 596.536 504.462 597.584 503.854 598.528C503.262 599.472 502.398 600.232 501.262 600.808C500.126 601.384 498.766 601.672 497.182 601.672ZM508.773 607.384C507.109 607.384 505.789 606.912 504.813 605.968C503.853 605.008 503.373 603.688 503.373 602.008C503.373 600.92 503.549 599.88 503.901 598.888C504.269 597.88 504.781 596.992 505.437 596.224C506.109 595.44 506.909 594.824 507.837 594.376C508.781 593.912 509.837 593.68 511.005 593.68C512.669 593.68 513.981 594.16 514.941 595.12C515.917 596.064 516.405 597.376 516.405 599.056C516.405 600.144 516.221 601.192 515.853 602.2C515.501 603.192 514.989 604.08 514.317 604.864C513.645 605.648 512.845 606.264 511.917 606.712C510.989 607.16 509.941 607.384 508.773 607.384ZM509.157 604.408C509.669 604.408 510.133 604.256 510.549 603.952C510.981 603.632 511.349 603.216 511.653 602.704C511.957 602.192 512.189 601.624 512.349 601C512.525 600.36 512.613 599.72 512.613 599.08C512.613 598.28 512.445 597.68 512.109 597.28C511.773 596.864 511.277 596.656 510.621 596.656C510.093 596.656 509.613 596.816 509.181 597.136C508.765 597.44 508.405 597.856 508.101 598.384C507.813 598.896 507.581 599.464 507.405 600.088C507.245 600.712 507.165 601.352 507.165 602.008C507.165 602.776 507.333 603.368 507.669 603.784C508.005 604.2 508.501 604.408 509.157 604.408ZM515.25 607L517.746 594.088H521.418L518.922 607H515.25ZM520.218 600.328H518.898C519.234 598.84 519.698 597.608 520.29 596.632C520.882 595.64 521.554 594.904 522.306 594.424C523.074 593.928 523.866 593.68 524.682 593.68C525.418 593.68 525.89 593.816 526.098 594.088L525.474 597.184C525.282 597.136 525.066 597.104 524.826 597.088C524.602 597.056 524.346 597.04 524.058 597.04C523.482 597.04 522.97 597.112 522.522 597.256C522.09 597.4 521.714 597.608 521.394 597.88C521.09 598.152 520.842 598.496 520.65 598.912C520.458 599.312 520.314 599.784 520.218 600.328ZM524.663 602.728L526.919 591.088H530.591L528.431 602.32C528.399 602.48 528.367 602.632 528.335 602.776C528.319 602.904 528.311 603.024 528.311 603.136C528.311 603.552 528.431 603.848 528.671 604.024C528.927 604.2 529.335 604.288 529.895 604.288H530.663L530.135 607.048C529.895 607.128 529.575 607.2 529.175 607.264C528.791 607.344 528.351 607.384 527.855 607.384C526.703 607.384 525.847 607.152 525.287 606.688C524.743 606.224 524.471 605.48 524.471 604.456C524.471 604.2 524.487 603.928 524.519 603.64C524.567 603.352 524.615 603.048 524.663 602.728ZM524.231 596.872L524.783 594.088H532.679L532.127 596.872H524.231ZM544.237 594.088L541.717 607H538.045L540.565 594.088H544.237ZM539.125 601.504H540.469C540.133 602.848 539.653 603.96 539.029 604.84C538.421 605.704 537.733 606.344 536.965 606.76C536.197 607.176 535.397 607.384 534.565 607.384C533.477 607.384 532.597 607.072 531.925 606.448C531.253 605.824 530.917 604.88 530.917 603.616C530.917 603.392 530.925 603.152 530.941 602.896C530.973 602.624 531.013 602.352 531.061 602.08L532.621 594.088H536.293L534.781 601.936C534.749 602.112 534.717 602.272 534.685 602.416C534.669 602.56 534.661 602.704 534.661 602.848C534.661 603.36 534.789 603.752 535.045 604.024C535.317 604.28 535.709 604.408 536.221 604.408C536.573 604.408 536.901 604.336 537.205 604.192C537.525 604.048 537.813 603.848 538.069 603.592C538.325 603.32 538.541 603.008 538.717 602.656C538.893 602.288 539.029 601.904 539.125 601.504ZM554.171 607.672C553.947 608.84 553.531 609.792 552.923 610.528C552.315 611.28 551.563 611.824 550.667 612.16C549.771 612.512 548.755 612.688 547.619 612.688C546.499 612.688 545.523 612.488 544.691 612.088C543.875 611.688 543.243 611.144 542.795 610.456C542.363 609.768 542.147 608.984 542.147 608.104H545.819C545.867 608.696 546.067 609.136 546.419 609.424C546.771 609.728 547.259 609.88 547.883 609.88C548.539 609.88 549.099 609.704 549.563 609.352C550.043 609 550.371 608.376 550.547 607.48L553.163 594.088H556.835L554.171 607.672ZM547.379 607.048C546.499 607.048 545.739 606.84 545.099 606.424C544.459 606.008 543.963 605.432 543.611 604.696C543.275 603.96 543.107 603.096 543.107 602.104C543.107 601 543.275 599.944 543.611 598.936C543.963 597.928 544.443 597.032 545.051 596.248C545.675 595.448 546.403 594.824 547.235 594.376C548.067 593.912 548.995 593.68 550.019 593.68C551.219 593.68 552.131 594.088 552.755 594.904C553.395 595.704 553.715 596.832 553.715 598.288C553.715 599.504 553.539 600.648 553.187 601.72C552.851 602.776 552.379 603.704 551.771 604.504C551.179 605.288 550.507 605.912 549.755 606.376C549.003 606.824 548.211 607.048 547.379 607.048ZM548.723 604.048C549.251 604.048 549.723 603.888 550.139 603.568C550.555 603.232 550.907 602.8 551.195 602.272C551.483 601.744 551.699 601.176 551.843 600.568C552.003 599.96 552.083 599.376 552.083 598.816C552.083 598.128 551.923 597.6 551.603 597.232C551.299 596.848 550.851 596.656 550.259 596.656C549.795 596.656 549.355 596.808 548.939 597.112C548.539 597.4 548.187 597.8 547.883 598.312C547.579 598.808 547.339 599.368 547.163 599.992C547.003 600.6 546.923 601.232 546.923 601.888C546.923 602.592 547.075 603.128 547.379 603.496C547.699 603.864 548.147 604.048 548.723 604.048ZM569.236 594.088L566.716 607H563.044L565.564 594.088H569.236ZM564.124 601.504H565.468C565.132 602.848 564.652 603.96 564.028 604.84C563.42 605.704 562.732 606.344 561.964 606.76C561.196 607.176 560.396 607.384 559.564 607.384C558.476 607.384 557.596 607.072 556.924 606.448C556.252 605.824 555.916 604.88 555.916 603.616C555.916 603.392 555.924 603.152 555.94 602.896C555.972 602.624 556.012 602.352 556.06 602.08L557.62 594.088H561.292L559.78 601.936C559.748 602.112 559.716 602.272 559.684 602.416C559.668 602.56 559.66 602.704 559.66 602.848C559.66 603.36 559.788 603.752 560.044 604.024C560.316 604.28 560.708 604.408 561.22 604.408C561.572 604.408 561.9 604.336 562.204 604.192C562.524 604.048 562.812 603.848 563.068 603.592C563.324 603.32 563.54 603.008 563.716 602.656C563.892 602.288 564.028 601.904 564.124 601.504ZM579.53 599.176L577.178 600.52C577.226 600.232 577.266 599.968 577.298 599.728C577.33 599.472 577.346 599.232 577.346 599.008C577.346 598.224 577.17 597.632 576.818 597.232C576.482 596.816 575.986 596.608 575.33 596.608C574.802 596.608 574.322 596.76 573.89 597.064C573.458 597.352 573.082 597.752 572.762 598.264C572.458 598.776 572.226 599.352 572.066 599.992C571.906 600.616 571.826 601.256 571.826 601.912C571.826 602.76 572.002 603.4 572.354 603.832C572.706 604.248 573.234 604.456 573.938 604.456C574.546 604.456 575.09 604.328 575.57 604.072C576.05 603.8 576.426 603.36 576.698 602.752H580.538C580.138 603.776 579.578 604.632 578.858 605.32C578.154 606.008 577.354 606.528 576.458 606.88C575.562 607.216 574.626 607.384 573.65 607.384C571.922 607.384 570.554 606.92 569.546 605.992C568.554 605.048 568.058 603.728 568.058 602.032C568.058 600.928 568.234 599.88 568.586 598.888C568.954 597.88 569.474 596.984 570.146 596.2C570.834 595.416 571.642 594.8 572.57 594.352C573.514 593.904 574.546 593.68 575.666 593.68C577.362 593.68 578.674 594.16 579.602 595.12C580.53 596.064 580.994 597.336 580.994 598.936C580.994 599.192 580.978 599.464 580.946 599.752C580.93 600.04 580.898 600.328 580.85 600.616L580.73 601.288H569.594L569.978 599.176H579.53ZM577.466 592.792L576.41 591.16L574.73 592.792H571.538L574.442 589.72H578.834L580.634 592.792H577.466ZM585.168 597.76C585.168 598.064 585.288 598.312 585.528 598.504C585.768 598.68 586.088 598.816 586.488 598.912C586.888 599.008 587.328 599.104 587.808 599.2C588.288 599.28 588.76 599.392 589.224 599.536C589.704 599.68 590.144 599.88 590.544 600.136C590.944 600.392 591.264 600.736 591.504 601.168C591.744 601.6 591.864 602.152 591.864 602.824C591.864 603.592 591.624 604.328 591.144 605.032C590.68 605.736 589.984 606.304 589.056 606.736C588.144 607.168 587.016 607.384 585.672 607.384C584.536 607.384 583.552 607.208 582.72 606.856C581.904 606.504 581.264 605.984 580.8 605.296C580.352 604.592 580.112 603.744 580.08 602.752H583.752C583.752 603.104 583.824 603.424 583.968 603.712C584.128 603.984 584.368 604.2 584.688 604.36C585.008 604.52 585.408 604.6 585.888 604.6C586.4 604.6 586.816 604.544 587.136 604.432C587.456 604.304 587.696 604.128 587.856 603.904C588.032 603.68 588.12 603.432 588.12 603.16C588.12 602.84 588 602.592 587.76 602.416C587.52 602.24 587.2 602.104 586.8 602.008C586.416 601.896 585.992 601.8 585.528 601.72C585.064 601.624 584.592 601.504 584.112 601.36C583.648 601.216 583.216 601.016 582.816 600.76C582.432 600.504 582.12 600.16 581.88 599.728C581.656 599.296 581.544 598.736 581.544 598.048C581.544 597.296 581.76 596.584 582.192 595.912C582.64 595.24 583.28 594.704 584.112 594.304C584.96 593.888 585.984 593.68 587.184 593.68C588.784 593.68 590.056 594.08 591 594.88C591.944 595.664 592.464 596.824 592.56 598.36H588.96C588.944 597.72 588.776 597.248 588.456 596.944C588.136 596.64 587.64 596.488 586.968 596.488C586.584 596.488 586.256 596.544 585.984 596.656C585.728 596.768 585.528 596.92 585.384 597.112C585.24 597.288 585.168 597.504 585.168 597.76ZM596.795 611.344C595.611 608.688 595.019 606.096 595.019 603.568C595.019 602 595.243 600.456 595.691 598.936C596.139 597.416 596.803 595.896 597.683 594.376C598.579 592.84 599.683 591.288 600.995 589.72H604.643C603.379 591.352 602.323 592.96 601.475 594.544C600.627 596.112 599.987 597.672 599.555 599.224C599.139 600.76 598.931 602.304 598.931 603.856C598.931 605.072 599.059 606.296 599.315 607.528C599.571 608.776 599.947 610.048 600.443 611.344H596.795ZM601.432 607L604.6 590.68H608.152L605.272 607H601.432ZM611.992 607L614.872 590.68H618.712L615.544 607H611.992ZM611.512 607L608.008 598.432L605.776 590.68H608.656L612.16 599.248L614.392 607H611.512ZM621.711 598.36H618.039C618.455 596.824 619.247 595.664 620.415 594.88C621.583 594.08 623.007 593.68 624.687 593.68C625.823 593.68 626.759 593.864 627.495 594.232C628.247 594.584 628.807 595.072 629.175 595.696C629.543 596.32 629.727 597.024 629.727 597.808C629.727 598 629.711 598.192 629.679 598.384C629.663 598.56 629.639 598.752 629.607 598.96L628.671 603.784C628.559 604.408 628.479 604.92 628.431 605.32C628.383 605.72 628.359 606.064 628.359 606.352C628.359 606.48 628.359 606.592 628.359 606.688C628.375 606.784 628.391 606.888 628.407 607H624.615C624.615 606.936 624.607 606.88 624.591 606.832C624.591 606.768 624.591 606.704 624.591 606.64C624.591 606.336 624.623 605.976 624.687 605.56C624.751 605.144 624.823 604.704 624.903 604.24L625.959 598.816C625.991 598.704 626.007 598.592 626.007 598.48C626.023 598.352 626.031 598.24 626.031 598.144C626.031 597.648 625.879 597.28 625.575 597.04C625.271 596.784 624.807 596.656 624.183 596.656C623.543 596.656 623.015 596.816 622.599 597.136C622.199 597.44 621.903 597.848 621.711 598.36ZM626.367 599.104L625.959 601.24C624.871 601.24 623.967 601.296 623.247 601.408C622.527 601.52 621.959 601.688 621.543 601.912C621.127 602.12 620.831 602.368 620.655 602.656C620.479 602.928 620.391 603.232 620.391 603.568C620.391 604 620.519 604.32 620.775 604.528C621.047 604.736 621.415 604.84 621.879 604.84C622.439 604.84 622.959 604.712 623.439 604.456C623.935 604.184 624.351 603.816 624.687 603.352C625.039 602.872 625.271 602.336 625.383 601.744H626.847C626.511 603.072 625.999 604.16 625.311 605.008C624.623 605.84 623.855 606.448 623.007 606.832C622.175 607.2 621.343 607.384 620.511 607.384C619.391 607.384 618.455 607.096 617.703 606.52C616.967 605.928 616.599 605.072 616.599 603.952C616.599 603.072 616.887 602.272 617.463 601.552C618.039 600.832 618.879 600.28 619.983 599.896C620.671 599.656 621.311 599.48 621.903 599.368C622.511 599.256 623.159 599.184 623.847 599.152C624.551 599.12 625.391 599.104 626.367 599.104ZM630.277 602.728L632.533 591.088H636.205L634.045 602.32C634.013 602.48 633.981 602.632 633.949 602.776C633.933 602.904 633.925 603.024 633.925 603.136C633.925 603.552 634.045 603.848 634.285 604.024C634.541 604.2 634.949 604.288 635.509 604.288H636.277L635.749 607.048C635.509 607.128 635.189 607.2 634.789 607.264C634.405 607.344 633.965 607.384 633.469 607.384C632.317 607.384 631.461 607.152 630.901 606.688C630.357 606.224 630.085 605.48 630.085 604.456C630.085 604.2 630.101 603.928 630.133 603.64C630.181 603.352 630.229 603.048 630.277 602.728ZM629.845 596.872L630.397 594.088H638.293L637.741 596.872H629.845ZM635.739 607L638.235 594.088H641.907L639.411 607H635.739ZM638.499 592.792L639.099 589.72H642.771L642.171 592.792H638.499ZM643.56 607L641.52 594.088H645.384L646.344 602.632L646.44 605.368H645.888L646.992 602.632L651.288 594.088H655.176L648.096 607H643.56ZM657.994 607.384C656.33 607.384 655.01 606.912 654.034 605.968C653.074 605.008 652.594 603.688 652.594 602.008C652.594 600.92 652.77 599.88 653.122 598.888C653.49 597.88 654.002 596.992 654.658 596.224C655.33 595.44 656.13 594.824 657.058 594.376C658.002 593.912 659.058 593.68 660.226 593.68C661.89 593.68 663.202 594.16 664.162 595.12C665.138 596.064 665.626 597.376 665.626 599.056C665.626 600.144 665.442 601.192 665.074 602.2C664.722 603.192 664.21 604.08 663.538 604.864C662.866 605.648 662.066 606.264 661.138 606.712C660.21 607.16 659.162 607.384 657.994 607.384ZM658.378 604.408C658.89 604.408 659.354 604.256 659.77 603.952C660.202 603.632 660.57 603.216 660.874 602.704C661.178 602.192 661.41 601.624 661.57 601C661.746 600.36 661.834 599.72 661.834 599.08C661.834 598.28 661.666 597.68 661.33 597.28C660.994 596.864 660.498 596.656 659.842 596.656C659.314 596.656 658.834 596.816 658.402 597.136C657.986 597.44 657.626 597.856 657.322 598.384C657.034 598.896 656.802 599.464 656.626 600.088C656.466 600.712 656.386 601.352 656.386 602.008C656.386 602.776 656.554 603.368 656.89 603.784C657.226 604.2 657.722 604.408 658.378 604.408ZM666.392 611.344H662.72C664 609.696 665.056 608.088 665.888 606.52C666.736 604.952 667.368 603.392 667.784 601.84C668.216 600.272 668.432 598.712 668.432 597.16C668.432 595.944 668.304 594.72 668.048 593.488C667.792 592.256 667.416 591 666.92 589.72H670.592C671.168 591.032 671.6 592.328 671.888 593.608C672.192 594.872 672.344 596.144 672.344 597.424C672.344 598.96 672.12 600.496 671.672 602.032C671.24 603.568 670.576 605.112 669.68 606.664C668.8 608.2 667.704 609.76 666.392 611.344ZM673.153 607L681.745 590.68H685.465L676.873 607H673.153ZM684.921 607L688.089 590.68H691.929L688.761 607H684.921ZM689.799 607L692.295 594.088H695.967L693.471 607H689.799ZM694.887 599.584H693.663C694.015 598.24 694.471 597.136 695.031 596.272C695.607 595.392 696.271 594.744 697.023 594.328C697.791 593.896 698.623 593.68 699.519 593.68C700.271 593.68 700.927 593.824 701.487 594.112C702.047 594.4 702.479 594.824 702.783 595.384C703.103 595.944 703.263 596.64 703.263 597.472C703.263 597.696 703.247 597.936 703.215 598.192C703.199 598.432 703.167 598.68 703.119 598.936L701.535 607H697.863L699.399 599.128C699.431 598.968 699.455 598.824 699.471 598.696C699.487 598.552 699.495 598.416 699.495 598.288C699.495 597.744 699.359 597.336 699.087 597.064C698.831 596.792 698.423 596.656 697.863 596.656C697.511 596.656 697.167 596.728 696.831 596.872C696.511 597.016 696.215 597.224 695.943 597.496C695.687 597.752 695.471 598.064 695.295 598.432C695.119 598.784 694.983 599.168 694.887 599.584ZM713.985 607.672C713.761 608.84 713.345 609.792 712.737 610.528C712.129 611.28 711.377 611.824 710.481 612.16C709.585 612.512 708.569 612.688 707.433 612.688C706.313 612.688 705.337 612.488 704.505 612.088C703.689 611.688 703.057 611.144 702.609 610.456C702.177 609.768 701.961 608.984 701.961 608.104H705.633C705.681 608.696 705.881 609.136 706.233 609.424C706.585 609.728 707.073 609.88 707.697 609.88C708.353 609.88 708.913 609.704 709.377 609.352C709.857 609 710.185 608.376 710.361 607.48L712.977 594.088H716.649L713.985 607.672ZM707.193 607.048C706.313 607.048 705.553 606.84 704.913 606.424C704.273 606.008 703.777 605.432 703.425 604.696C703.089 603.96 702.921 603.096 702.921 602.104C702.921 601 703.089 599.944 703.425 598.936C703.777 597.928 704.257 597.032 704.865 596.248C705.489 595.448 706.217 594.824 707.049 594.376C707.881 593.912 708.809 593.68 709.833 593.68C711.033 593.68 711.945 594.088 712.569 594.904C713.209 595.704 713.529 596.832 713.529 598.288C713.529 599.504 713.353 600.648 713.001 601.72C712.665 602.776 712.193 603.704 711.585 604.504C710.993 605.288 710.321 605.912 709.569 606.376C708.817 606.824 708.025 607.048 707.193 607.048ZM708.537 604.048C709.065 604.048 709.537 603.888 709.953 603.568C710.369 603.232 710.721 602.8 711.009 602.272C711.297 601.744 711.513 601.176 711.657 600.568C711.817 599.96 711.897 599.376 711.897 598.816C711.897 598.128 711.737 597.6 711.417 597.232C711.113 596.848 710.665 596.656 710.073 596.656C709.609 596.656 709.169 596.808 708.753 597.112C708.353 597.4 708.001 597.8 707.697 598.312C707.393 598.808 707.153 599.368 706.977 599.992C706.817 600.6 706.737 601.232 706.737 601.888C706.737 602.592 706.889 603.128 707.193 603.496C707.513 603.864 707.961 604.048 708.537 604.048ZM714.939 607L718.299 589.72H721.971L718.611 607H714.939ZM731.4 599.176L729.048 600.52C729.096 600.232 729.136 599.968 729.168 599.728C729.2 599.472 729.216 599.232 729.216 599.008C729.216 598.224 729.04 597.632 728.688 597.232C728.352 596.816 727.856 596.608 727.2 596.608C726.672 596.608 726.192 596.76 725.76 597.064C725.328 597.352 724.952 597.752 724.632 598.264C724.328 598.776 724.096 599.352 723.936 599.992C723.776 600.616 723.696 601.256 723.696 601.912C723.696 602.76 723.872 603.4 724.224 603.832C724.576 604.248 725.104 604.456 725.808 604.456C726.416 604.456 726.96 604.328 727.44 604.072C727.92 603.8 728.296 603.36 728.568 602.752H732.408C732.008 603.776 731.448 604.632 730.728 605.32C730.024 606.008 729.224 606.528 728.328 606.88C727.432 607.216 726.496 607.384 725.52 607.384C723.792 607.384 722.424 606.92 721.416 605.992C720.424 605.048 719.928 603.728 719.928 602.032C719.928 600.928 720.104 599.88 720.456 598.888C720.824 597.88 721.344 596.984 722.016 596.2C722.704 595.416 723.512 594.8 724.44 594.352C725.384 593.904 726.416 593.68 727.536 593.68C729.232 593.68 730.544 594.16 731.472 595.12C732.4 596.064 732.864 597.336 732.864 598.936C732.864 599.192 732.848 599.464 732.816 599.752C732.8 600.04 732.768 600.328 732.72 600.616L732.6 601.288H721.464L721.848 599.176H731.4ZM729.336 592.792L728.28 591.16L726.6 592.792H723.408L726.312 589.72H730.704L732.504 592.792H729.336ZM737.037 597.76C737.037 598.064 737.157 598.312 737.397 598.504C737.637 598.68 737.957 598.816 738.357 598.912C738.757 599.008 739.197 599.104 739.677 599.2C740.157 599.28 740.629 599.392 741.093 599.536C741.573 599.68 742.013 599.88 742.413 600.136C742.813 600.392 743.133 600.736 743.373 601.168C743.613 601.6 743.733 602.152 743.733 602.824C743.733 603.592 743.493 604.328 743.013 605.032C742.549 605.736 741.853 606.304 740.925 606.736C740.013 607.168 738.885 607.384 737.541 607.384C736.405 607.384 735.421 607.208 734.589 606.856C733.773 606.504 733.133 605.984 732.669 605.296C732.221 604.592 731.981 603.744 731.949 602.752H735.621C735.621 603.104 735.693 603.424 735.837 603.712C735.997 603.984 736.237 604.2 736.557 604.36C736.877 604.52 737.277 604.6 737.757 604.6C738.269 604.6 738.685 604.544 739.005 604.432C739.325 604.304 739.565 604.128 739.725 603.904C739.901 603.68 739.989 603.432 739.989 603.16C739.989 602.84 739.869 602.592 739.629 602.416C739.389 602.24 739.069 602.104 738.669 602.008C738.285 601.896 737.861 601.8 737.397 601.72C736.933 601.624 736.461 601.504 735.981 601.36C735.517 601.216 735.085 601.016 734.685 600.76C734.301 600.504 733.989 600.16 733.749 599.728C733.525 599.296 733.413 598.736 733.413 598.048C733.413 597.296 733.629 596.584 734.061 595.912C734.509 595.24 735.149 594.704 735.981 594.304C736.829 593.888 737.853 593.68 739.053 593.68C740.653 593.68 741.925 594.08 742.869 594.88C743.813 595.664 744.333 596.824 744.429 598.36H740.829C740.813 597.72 740.645 597.248 740.325 596.944C740.005 596.64 739.509 596.488 738.837 596.488C738.453 596.488 738.125 596.544 737.853 596.656C737.597 596.768 737.397 596.92 737.253 597.112C737.109 597.288 737.037 597.504 737.037 597.76ZM748.664 611.344C747.48 608.688 746.888 606.096 746.888 603.568C746.888 602 747.112 600.456 747.56 598.936C748.008 597.416 748.672 595.896 749.552 594.376C750.448 592.84 751.552 591.288 752.864 589.72H756.512C755.248 591.352 754.192 592.96 753.344 594.544C752.496 596.112 751.856 597.672 751.424 599.224C751.008 600.76 750.8 602.304 750.8 603.856C750.8 605.072 750.928 606.296 751.184 607.528C751.44 608.776 751.816 610.048 752.312 611.344H748.664ZM753.302 607L756.47 590.68H760.31L757.142 607H753.302ZM760.742 607H756.11L756.71 603.952H761.222C761.83 603.952 762.326 603.848 762.71 603.64C763.094 603.416 763.382 603.12 763.574 602.752C763.782 602.384 763.886 602 763.886 601.6C763.886 601.152 763.718 600.792 763.382 600.52C763.046 600.232 762.542 600.088 761.87 600.088H757.454L758.006 597.304H761.63C762.222 597.304 762.702 597.208 763.07 597.016C763.454 596.808 763.734 596.536 763.91 596.2C764.102 595.864 764.198 595.504 764.198 595.12C764.198 594.688 764.046 594.352 763.742 594.112C763.454 593.856 763.014 593.728 762.422 593.728H758.702L759.278 590.68H763.094C764.678 590.68 765.934 591.032 766.862 591.736C767.79 592.44 768.254 593.432 768.254 594.712C768.254 595.352 768.11 595.96 767.822 596.536C767.534 597.112 767.094 597.608 766.502 598.024C765.926 598.44 765.206 598.72 764.342 598.864L764.51 598.048C765.614 598.176 766.446 598.552 767.006 599.176C767.566 599.8 767.846 600.568 767.846 601.48C767.846 602.504 767.566 603.44 767.006 604.288C766.462 605.12 765.662 605.784 764.606 606.28C763.55 606.76 762.262 607 760.742 607ZM772.221 598.36H768.549C768.965 596.824 769.757 595.664 770.925 594.88C772.093 594.08 773.517 593.68 775.197 593.68C776.333 593.68 777.269 593.864 778.005 594.232C778.757 594.584 779.317 595.072 779.685 595.696C780.053 596.32 780.237 597.024 780.237 597.808C780.237 598 780.221 598.192 780.189 598.384C780.173 598.56 780.149 598.752 780.117 598.96L779.181 603.784C779.069 604.408 778.989 604.92 778.941 605.32C778.893 605.72 778.869 606.064 778.869 606.352C778.869 606.48 778.869 606.592 778.869 606.688C778.885 606.784 778.901 606.888 778.917 607H775.125C775.125 606.936 775.117 606.88 775.101 606.832C775.101 606.768 775.101 606.704 775.101 606.64C775.101 606.336 775.133 605.976 775.197 605.56C775.261 605.144 775.333 604.704 775.413 604.24L776.469 598.816C776.501 598.704 776.517 598.592 776.517 598.48C776.533 598.352 776.541 598.24 776.541 598.144C776.541 597.648 776.389 597.28 776.085 597.04C775.781 596.784 775.317 596.656 774.693 596.656C774.053 596.656 773.525 596.816 773.109 597.136C772.709 597.44 772.413 597.848 772.221 598.36ZM776.877 599.104L776.469 601.24C775.381 601.24 774.477 601.296 773.757 601.408C773.037 601.52 772.469 601.688 772.053 601.912C771.637 602.12 771.341 602.368 771.165 602.656C770.989 602.928 770.901 603.232 770.901 603.568C770.901 604 771.029 604.32 771.285 604.528C771.557 604.736 771.925 604.84 772.389 604.84C772.949 604.84 773.469 604.712 773.949 604.456C774.445 604.184 774.861 603.816 775.197 603.352C775.549 602.872 775.781 602.336 775.893 601.744H777.357C777.021 603.072 776.509 604.16 775.821 605.008C775.133 605.84 774.365 606.448 773.517 606.832C772.685 607.2 771.853 607.384 771.021 607.384C769.901 607.384 768.965 607.096 768.213 606.52C767.477 605.928 767.109 605.072 767.109 603.952C767.109 603.072 767.397 602.272 767.973 601.552C768.549 600.832 769.389 600.28 770.493 599.896C771.181 599.656 771.821 599.48 772.413 599.368C773.021 599.256 773.669 599.184 774.357 599.152C775.061 599.12 775.901 599.104 776.877 599.104ZM773.853 592.792L776.181 589.72H780.165L777.069 592.792H773.853ZM784.723 597.76C784.723 598.064 784.843 598.312 785.083 598.504C785.323 598.68 785.643 598.816 786.043 598.912C786.443 599.008 786.883 599.104 787.363 599.2C787.843 599.28 788.315 599.392 788.779 599.536C789.259 599.68 789.699 599.88 790.099 600.136C790.499 600.392 790.819 600.736 791.059 601.168C791.299 601.6 791.419 602.152 791.419 602.824C791.419 603.592 791.179 604.328 790.699 605.032C790.235 605.736 789.539 606.304 788.611 606.736C787.699 607.168 786.571 607.384 785.227 607.384C784.091 607.384 783.107 607.208 782.275 606.856C781.459 606.504 780.819 605.984 780.355 605.296C779.907 604.592 779.667 603.744 779.635 602.752H783.307C783.307 603.104 783.379 603.424 783.523 603.712C783.683 603.984 783.923 604.2 784.243 604.36C784.563 604.52 784.963 604.6 785.443 604.6C785.955 604.6 786.371 604.544 786.691 604.432C787.011 604.304 787.251 604.128 787.411 603.904C787.587 603.68 787.675 603.432 787.675 603.16C787.675 602.84 787.555 602.592 787.315 602.416C787.075 602.24 786.755 602.104 786.355 602.008C785.971 601.896 785.547 601.8 785.083 601.72C784.619 601.624 784.147 601.504 783.667 601.36C783.203 601.216 782.771 601.016 782.371 600.76C781.987 600.504 781.675 600.16 781.435 599.728C781.211 599.296 781.099 598.736 781.099 598.048C781.099 597.296 781.315 596.584 781.747 595.912C782.195 595.24 782.835 594.704 783.667 594.304C784.515 593.888 785.539 593.68 786.739 593.68C788.339 593.68 789.611 594.08 790.555 594.88C791.499 595.664 792.019 596.824 792.115 598.36H788.515C788.499 597.72 788.331 597.248 788.011 596.944C787.691 596.64 787.195 596.488 786.523 596.488C786.139 596.488 785.811 596.544 785.539 596.656C785.283 596.768 785.083 596.92 784.939 597.112C784.795 597.288 784.723 597.504 784.723 597.76ZM790.843 607L793.339 594.088H797.011L794.515 607H790.843ZM793.603 592.792L794.203 589.72H797.875L797.275 592.792H793.603ZM808.407 598.744H804.759C804.759 598.008 804.591 597.48 804.255 597.16C803.935 596.824 803.495 596.656 802.935 596.656C802.439 596.656 801.983 596.808 801.567 597.112C801.167 597.416 800.823 597.824 800.535 598.336C800.247 598.848 800.023 599.424 799.863 600.064C799.703 600.688 799.623 601.336 799.623 602.008C799.623 602.776 799.791 603.368 800.127 603.784C800.479 604.2 800.967 604.408 801.591 604.408C802.135 604.408 802.623 604.256 803.055 603.952C803.503 603.648 803.847 603.192 804.087 602.584H807.759C807.391 603.656 806.863 604.552 806.175 605.272C805.503 605.976 804.735 606.504 803.871 606.856C803.007 607.208 802.103 607.384 801.159 607.384C799.511 607.384 798.207 606.912 797.247 605.968C796.303 605.024 795.831 603.712 795.831 602.032C795.831 600.96 796.007 599.928 796.359 598.936C796.711 597.928 797.215 597.032 797.871 596.248C798.527 595.464 799.311 594.84 800.223 594.376C801.135 593.912 802.143 593.68 803.247 593.68C804.863 593.68 806.119 594.128 807.015 595.024C807.927 595.904 808.391 597.144 808.407 598.744ZM813.004 607.384C811.34 607.384 810.02 606.912 809.044 605.968C808.084 605.008 807.604 603.688 807.604 602.008C807.604 600.92 807.78 599.88 808.132 598.888C808.5 597.88 809.012 596.992 809.668 596.224C810.34 595.44 811.14 594.824 812.068 594.376C813.012 593.912 814.068 593.68 815.236 593.68C816.9 593.68 818.212 594.16 819.172 595.12C820.148 596.064 820.636 597.376 820.636 599.056C820.636 600.144 820.452 601.192 820.084 602.2C819.732 603.192 819.22 604.08 818.548 604.864C817.876 605.648 817.076 606.264 816.148 606.712C815.22 607.16 814.172 607.384 813.004 607.384ZM813.388 604.408C813.9 604.408 814.364 604.256 814.78 603.952C815.212 603.632 815.58 603.216 815.884 602.704C816.188 602.192 816.42 601.624 816.58 601C816.756 600.36 816.844 599.72 816.844 599.08C816.844 598.28 816.676 597.68 816.34 597.28C816.004 596.864 815.508 596.656 814.852 596.656C814.324 596.656 813.844 596.816 813.412 597.136C812.996 597.44 812.636 597.856 812.332 598.384C812.044 598.896 811.812 599.464 811.636 600.088C811.476 600.712 811.396 601.352 811.396 602.008C811.396 602.776 811.564 603.368 811.9 603.784C812.236 604.2 812.732 604.408 813.388 604.408ZM821.402 611.344H817.73C819.01 609.696 820.066 608.088 820.898 606.52C821.746 604.952 822.378 603.392 822.794 601.84C823.226 600.272 823.442 598.712 823.442 597.16C823.442 595.944 823.314 594.72 823.058 593.488C822.802 592.256 822.426 591 821.93 589.72H825.602C826.178 591.032 826.61 592.328 826.898 593.608C827.202 594.872 827.354 596.144 827.354 597.424C827.354 598.96 827.13 600.496 826.682 602.032C826.25 603.568 825.586 605.112 824.69 606.664C823.81 608.2 822.714 609.76 821.402 611.344Z" fill="#FFF262"/>
<path d="M399.944 444.444C401.535 441.789 403.67 438.063 406.588 432.878C410.065 426.7 415.12 422.072 420.025 417.958C427.877 411.373 434.581 407.935 437.104 406.476C440.572 404.47 448.126 399.963 461.671 394.642C469.218 391.677 478.91 390.376 493.434 389.293C507.958 388.21 527.22 387.946 539.913 388.206C558.174 388.579 566.495 390.864 573.791 393.515C585.276 397.687 594.744 402.85 600.197 406.04C609.327 411.382 613.941 417.242 616.884 420.708C621.81 426.511 625.151 433.761 628.21 440.554C630.342 445.29 634.202 451.608 636.609 458.944C637.919 462.936 638.744 466.016 639.148 469.35C639.651 473.507 641.399 481.432 643.541 493.565C643.813 497.431 643.813 502.445 643.945 505.423C644.077 508.401 644.341 509.193 644.613 511.608M621.822 503.39C623.09 503.39 625.396 503.631 626.735 503.815C628.655 504.078 630.925 504.665 631.836 504.998C632.716 505.319 633.956 505.452 636.021 506.422C637.532 507.131 639.478 508.785 640.73 509.732C641.558 510.359 642.399 510.978 643.128 511.281C644.005 511.645 644.464 512.313 644.979 512.436C646.257 512.741 646.107 510.26 646.498 509.161C647.037 507.643 650.697 506.257 652.808 505.274C654.932 504.286 656.419 503.758 661.169 502.183C666.684 501.023 667.352 500.963 667.745 500.781C667.959 500.66 668.199 500.48 668.447 500.294" stroke="#FFF262" stroke-width="2" stroke-linecap="round"/>
</svg>
