<svg width="50" height="95" viewBox="0 0 50 95" fill="none" xmlns="http://www.w3.org/2000/svg">
<rect x="2.5" y="47.5" width="45" height="45" stroke="white" stroke-width="5"/>
<rect x="2.5" y="2.5" width="45" height="45" fill="white" stroke="white" stroke-width="5"/>
<path d="M35 25H36M25 15V14M25 36V35M33 33L32 32M33 17L32 18M17 33L18 32M17 17L18 18M14 25H15M25 31C26.5913 31 28.1174 30.3679 29.2426 29.2426C30.3679 28.1174 31 26.5913 31 25C31 23.4087 30.3679 21.8826 29.2426 20.7574C28.1174 19.6321 26.5913 19 25 19C23.4087 19 21.8826 19.6321 20.7574 20.7574C19.6321 21.8826 19 23.4087 19 25C19 26.5913 19.6321 28.1174 20.7574 29.2426C21.8826 30.3679 23.4087 31 25 31Z" stroke="black" stroke-width="2" stroke-linecap="round" stroke-linejoin="round"/>
<path d="M16 69.507C15.9986 71.6491 16.7218 73.7288 18.0519 75.4079C19.3821 77.087 21.2411 78.2668 23.3267 78.7557C25.4123 79.2445 27.6019 79.0136 29.5397 78.1005C31.4774 77.1873 33.0494 75.6456 34 73.726C25.493 73.726 21.274 69.506 21.274 61C19.6895 61.7857 18.3562 62.9985 17.4243 64.5017C16.4924 66.0048 15.9991 67.7384 16 69.507Z" stroke="white" stroke-width="2" stroke-linecap="round" stroke-linejoin="round"/>
</svg>
